<?xml version="1.0" encoding="UTF-8" standalone="no"?>
<!-- Created with Inkscape (http://www.inkscape.org/) -->

<svg
   width="16.406813mm"
   height="16.404167mm"
   viewBox="0 0 16.406813 16.404167"
   version="1.1"
   id="svg37268"
   inkscape:version="1.2 (dc2aedaf03, 2022-05-15)"
   sodipodi:docname="cloud.svg"
   xmlns:inkscape="http://www.inkscape.org/namespaces/inkscape"
   xmlns:sodipodi="http://sodipodi.sourceforge.net/DTD/sodipodi-0.dtd"
   xmlns="http://www.w3.org/2000/svg"
   xmlns:svg="http://www.w3.org/2000/svg">
  <sodipodi:namedview
     id="namedview37270"
     pagecolor="#ffffff"
     bordercolor="#000000"
     borderopacity="0.25"
     inkscape:showpageshadow="2"
     inkscape:pageopacity="0.0"
     inkscape:pagecheckerboard="0"
     inkscape:deskcolor="#d1d1d1"
     inkscape:document-units="mm"
     showgrid="false"
     inkscape:zoom="0.69130191"
     inkscape:cx="297.98847"
     inkscape:cy="251.699"
     inkscape:window-width="1920"
     inkscape:window-height="974"
     inkscape:window-x="-11"
     inkscape:window-y="-11"
     inkscape:window-maximized="1"
     inkscape:current-layer="layer1" />
  <defs
     id="defs37265" />
  <g
     inkscape:label="Layer 1"
     inkscape:groupmode="layer"
     id="layer1"
     transform="translate(-4.4267485,-81.739927)">
    <g
       id="g11196"
       transform="matrix(0.26458333,0,0,0.26458333,-4.3045014,50.783677)">
	<g
   id="g11074">
		<path
   class="st0"
   d="m 64,173 c -4.41,0 -8,-3.59 -8,-8 0,-4.41 3.59,-8 8,-8 4.41,0 8,3.59 8,8 0,4.41 -3.59,8 -8,8 z m 0,-14 c -3.31,0 -6,2.69 -6,6 0,3.31 2.69,6 6,6 3.31,0 6,-2.69 6,-6 0,-3.31 -2.69,-6 -6,-6 z"
   id="path11072"
   style="fill:#3f3a34" />

	</g>

	<g
   id="g11078">
		<path
   class="st0"
   d="m 64,169 c -2.21,0 -4,-1.79 -4,-4 0,-2.21 1.79,-4 4,-4 2.21,0 4,1.79 4,4 0,2.21 -1.79,4 -4,4 z m 0,-6 c -1.1,0 -2,0.9 -2,2 0,1.1 0.9,2 2,2 1.1,0 2,-0.9 2,-2 0,-1.1 -0.9,-2 -2,-2 z"
   id="path11076"
   style="fill:#3f3a34" />

	</g>

	<g
   id="g11082">
		<rect
   x="72"
   y="132"
   class="st0"
   width="2"
   height="5"
   id="rect11080"
   style="fill:#3f3a34" />

	</g>

	<g
   id="g11086">
		<polygon
   class="st0"
   points="83,137.59 83,125 85,125 85,138.41 81.71,141.71 80.29,140.29 "
   id="polygon11084"
   style="fill:#3f3a34" />

	</g>

	<g
   id="g11090">
		<polygon
   class="st0"
   points="91,143.59 91,133 93,133 93,144.41 89.71,147.71 88.29,146.29 "
   id="polygon11088"
   style="fill:#3f3a34" />

	</g>

	<g
   id="g11094">
		<path
   class="st0"
   d="m 73,130 c -1.65,0 -3,-1.35 -3,-3 0,-1.65 1.35,-3 3,-3 1.65,0 3,1.35 3,3 0,1.65 -1.35,3 -3,3 z m 0,-4 c -0.55,0 -1,0.45 -1,1 0,0.55 0.45,1 1,1 0.55,0 1,-0.45 1,-1 0,-0.55 -0.45,-1 -1,-1 z"
   id="path11092"
   style="fill:#3f3a34" />

	</g>

	<g
   id="g11098">
		<rect
   x="63"
   y="125"
   class="st0"
   width="2"
   height="11"
   id="rect11096"
   style="fill:#3f3a34" />

	</g>

	<g
   id="g11102">
		<path
   class="st0"
   d="m 64,123 c -1.65,0 -3,-1.35 -3,-3 0,-1.65 1.35,-3 3,-3 1.65,0 3,1.35 3,3 0,1.65 -1.35,3 -3,3 z m 0,-4 c -0.55,0 -1,0.45 -1,1 0,0.55 0.45,1 1,1 0.55,0 1,-0.45 1,-1 0,-0.55 -0.45,-1 -1,-1 z"
   id="path11100"
   style="fill:#3f3a34" />

	</g>

	<g
   id="g11106">
		<path
   class="st0"
   d="m 84,123 c -1.65,0 -3,-1.35 -3,-3 0,-1.65 1.35,-3 3,-3 1.65,0 3,1.35 3,3 0,1.65 -1.35,3 -3,3 z m 0,-4 c -0.55,0 -1,0.45 -1,1 0,0.55 0.45,1 1,1 0.55,0 1,-0.45 1,-1 0,-0.55 -0.45,-1 -1,-1 z"
   id="path11104"
   style="fill:#3f3a34" />

	</g>

	<g
   id="g11110">
		<path
   class="st0"
   d="m 92,131 c -1.65,0 -3,-1.35 -3,-3 0,-1.65 1.35,-3 3,-3 1.65,0 3,1.35 3,3 0,1.65 -1.35,3 -3,3 z m 0,-4 c -0.55,0 -1,0.45 -1,1 0,0.55 0.45,1 1,1 0.55,0 1,-0.45 1,-1 0,-0.55 -0.45,-1 -1,-1 z"
   id="path11108"
   style="fill:#3f3a34" />

	</g>

	<g
   id="g11114">
		<rect
   x="54"
   y="132"
   class="st0"
   width="2"
   height="6"
   id="rect11112"
   style="fill:#3f3a34" />

	</g>

	<g
   id="g11118">
		<polygon
   class="st0"
   points="43,125 45,125 45,137.59 47.71,140.29 46.29,141.71 43,138.41 "
   id="polygon11116"
   style="fill:#3f3a34" />

	</g>

	<g
   id="g11122">
		<polygon
   class="st0"
   points="35,133 37,133 37,143.59 41.71,148.29 40.29,149.71 35,144.41 "
   id="polygon11120"
   style="fill:#3f3a34" />

	</g>

	<g
   id="g11126">
		<path
   class="st0"
   d="m 55,130 c -1.65,0 -3,-1.35 -3,-3 0,-1.65 1.35,-3 3,-3 1.65,0 3,1.35 3,3 0,1.65 -1.35,3 -3,3 z m 0,-4 c -0.55,0 -1,0.45 -1,1 0,0.55 0.45,1 1,1 0.55,0 1,-0.45 1,-1 0,-0.55 -0.45,-1 -1,-1 z"
   id="path11124"
   style="fill:#3f3a34" />

	</g>

	<g
   id="g11130">
		<path
   class="st0"
   d="m 44,123 c -1.65,0 -3,-1.35 -3,-3 0,-1.65 1.35,-3 3,-3 1.65,0 3,1.35 3,3 0,1.65 -1.35,3 -3,3 z m 0,-4 c -0.55,0 -1,0.45 -1,1 0,0.55 0.45,1 1,1 0.55,0 1,-0.45 1,-1 0,-0.55 -0.45,-1 -1,-1 z"
   id="path11128"
   style="fill:#3f3a34" />

	</g>

	<g
   id="g11134">
		<path
   class="st0"
   d="m 36,131 c -1.65,0 -3,-1.35 -3,-3 0,-1.65 1.35,-3 3,-3 1.65,0 3,1.35 3,3 0,1.65 -1.35,3 -3,3 z m 0,-4 c -0.55,0 -1,0.45 -1,1 0,0.55 0.45,1 1,1 0.55,0 1,-0.45 1,-1 0,-0.55 -0.45,-1 -1,-1 z"
   id="path11132"
   style="fill:#3f3a34" />

	</g>

	<g
   id="g11138">
		<path
   class="st0"
   d="m 67.78,179 h -7.56 l -0.72,-2.89 c -0.06,-0.02 -0.11,-0.05 -0.17,-0.07 l -2.55,1.53 -4.79,-4.79 1.41,-1.41 3.69,3.69 2.12,-1.27 0.48,0.23 c 0.32,0.15 0.65,0.29 0.98,0.41 l 0.51,0.18 0.6,2.4 h 4.44 l 0.6,-2.4 0.51,-0.18 c 0.34,-0.12 0.66,-0.26 0.98,-0.41 l 0.48,-0.23 2.12,1.27 3.14,-3.14 -1.27,-2.12 0.23,-0.48 c 0.15,-0.32 0.29,-0.65 0.41,-0.98 l 0.18,-0.51 2.4,-0.6 v -4.44 l -2.4,-0.6 -0.18,-0.51 c -0.12,-0.34 -0.26,-0.66 -0.41,-0.98 l 1.8,-0.86 c 0.1,0.22 0.2,0.44 0.29,0.67 l 2.89,0.72 v 7.56 l -2.89,0.72 c -0.02,0.06 -0.05,0.11 -0.07,0.17 l 1.53,2.55 -5.35,5.35 -2.55,-1.53 c -0.06,0.02 -0.11,0.05 -0.17,0.07 z"
   id="path11136"
   style="fill:#3f3a34" />

	</g>

	<g
   id="g11142">
		<path
   class="st0"
   d="m 53.18,170.17 c -0.1,-0.22 -0.2,-0.44 -0.29,-0.67 L 50,168.78 v -7.56 l 2.89,-0.72 c 0.02,-0.06 0.05,-0.11 0.07,-0.17 l -1.53,-2.55 5.35,-5.35 2.55,1.53 c 0.06,-0.02 0.11,-0.05 0.17,-0.07 L 60.22,151 h 7.56 l 0.72,2.89 c 0.06,0.02 0.11,0.05 0.17,0.07 l 2.55,-1.53 4.79,4.79 -1.41,1.41 -3.69,-3.69 -2.12,1.27 -0.48,-0.23 c -0.32,-0.15 -0.65,-0.29 -0.98,-0.41 l -0.51,-0.18 -0.6,-2.4 h -4.44 l -0.6,2.4 -0.51,0.18 c -0.34,0.12 -0.66,0.26 -0.98,0.41 l -0.48,0.23 -2.12,-1.27 -3.14,3.14 1.27,2.12 -0.23,0.48 c -0.15,0.32 -0.29,0.65 -0.41,0.98 l -0.18,0.51 -2.4,0.6 v 4.44 l 2.4,0.6 0.18,0.51 c 0.12,0.34 0.26,0.66 0.41,0.98 z"
   id="path11140"
   style="fill:#3f3a34" />

	</g>

	<g
   id="g11146">
		<path
   class="st0"
   d="m 48,170 h -6 c -4.96,0 -9,-4.04 -9,-9 0,-4.96 4.04,-9 9,-9 2.75,0 5.31,1.23 7.03,3.38 l -1.56,1.25 C 46.13,154.96 44.14,154 42,154 c -3.86,0 -7,3.14 -7,7 0,3.86 3.14,7 7,7 h 6 z"
   id="path11144"
   style="fill:#3f3a34" />

	</g>

	<g
   id="g11150">
		<path
   class="st0"
   d="m 63,149 h -2 c 0,-3.86 -3.14,-7 -7,-7 -3.52,0 -6.51,2.63 -6.95,6.12 l -1.98,-0.25 c 0.56,-4.49 4.4,-7.88 8.93,-7.88 4.96,0.01 9,4.05 9,9.01 z"
   id="path11148"
   style="fill:#3f3a34" />

	</g>

	<g
   id="g11154">
		<path
   class="st0"
   d="m 43.07,153.16 -1.97,-0.33 c 0.57,-3.38 3.47,-5.83 6.9,-5.83 2.49,0 4.81,1.34 6.06,3.5 l -1.73,1 C 51.44,149.96 49.78,149 48,149 c -2.45,0 -4.52,1.75 -4.93,4.16 z"
   id="path11152"
   style="fill:#3f3a34" />

	</g>

	<g
   id="g11158">
		<path
   class="st0"
   d="M 77.75,145.29 C 77,142.76 74.64,141 72,141 c -1.11,0 -2.19,0.31 -3.14,0.9 l -0.64,0.39 -0.56,-0.5 C 66.37,140.64 64.72,140 63,140 c -2.01,0 -3.92,0.86 -5.25,2.37 l -1.5,-1.32 C 57.96,139.11 60.42,138 63,138 c 1.97,0 3.88,0.65 5.44,1.84 1.11,-0.55 2.32,-0.84 3.56,-0.84 3.51,0 6.67,2.35 7.67,5.71 z"
   id="path11156"
   style="fill:#3f3a34" />

	</g>

	<g
   id="g11162">
		<path
   class="st0"
   d="m 87,170 h -7 v -2 h 7 c 3.31,0 6,-2.69 6,-6 0,-3.31 -2.69,-6 -6,-6 -2.12,0 -4.05,1.09 -5.14,2.91 l -1.71,-1.03 c 1.46,-2.43 4.03,-3.88 6.86,-3.88 4.41,0 8,3.59 8,8 0,4.41 -3.6,8 -8.01,8 z"
   id="path11160"
   style="fill:#3f3a34" />

	</g>

	<g
   id="g11166">
		<path
   class="st0"
   d="m 90.92,156.14 -1.98,-0.29 c 0.04,-0.28 0.06,-0.57 0.06,-0.86 0,-3.31 -2.69,-6 -6,-6 v -2 c 4.41,0 8,3.59 8,8 0,0.39 -0.03,0.78 -0.08,1.15 z"
   id="path11164"
   style="fill:#3f3a34" />

	</g>

	<g
   id="g11170">
		<path
   class="st0"
   d="m 78,156 v -2 c 2.21,0 4,-1.79 4,-4 0,-2.21 -1.79,-4 -4,-4 -2.21,0 -4,1.79 -4,4 h -2 c 0,-3.31 2.69,-6 6,-6 3.31,0 6,2.69 6,6 0,3.31 -2.69,6 -6,6 z"
   id="path11168"
   style="fill:#3f3a34" />

	</g>

	<g
   id="g11174">
		<rect
   x="86"
   y="162"
   class="st0"
   width="2"
   height="2"
   id="rect11172"
   style="fill:#3f3a34" />

	</g>

	<g
   id="g11178">
		<rect
   x="63"
   y="157"
   class="st0"
   width="2"
   height="2"
   id="rect11176"
   style="fill:#3f3a34" />

	</g>

	<g
   id="g11182">
		<rect
   x="41"
   y="163"
   class="st0"
   width="2"
   height="2"
   id="rect11180"
   style="fill:#3f3a34" />

	</g>

	<g
   id="g11186">
		<rect
   x="56"
   y="146"
   class="st0"
   width="2"
   height="2"
   id="rect11184"
   style="fill:#3f3a34" />

	</g>

	<g
   id="g11190">
		<rect
   x="70"
   y="164"
   class="st0"
   width="2"
   height="2"
   id="rect11188"
   style="fill:#3f3a34" />

	</g>

	<g
   id="g11194">
		<rect
   x="68"
   y="145"
   class="st0"
   width="2"
   height="2"
   id="rect11192"
   style="fill:#3f3a34" />

	</g>

</g>
  </g>
</svg>
