<?xml version="1.0" encoding="UTF-8" standalone="no"?>
<!-- Created with Inkscape (http://www.inkscape.org/) -->

<svg
   width="16.420042mm"
   height="16.404167mm"
   viewBox="0 0 16.420042 16.404167"
   version="1.1"
   id="svg31073"
   inkscape:version="1.2 (dc2aedaf03, 2022-05-15)"
   sodipodi:docname="computer-vision.svg"
   xmlns:inkscape="http://www.inkscape.org/namespaces/inkscape"
   xmlns:sodipodi="http://sodipodi.sourceforge.net/DTD/sodipodi-0.dtd"
   xmlns="http://www.w3.org/2000/svg"
   xmlns:svg="http://www.w3.org/2000/svg">
  <sodipodi:namedview
     id="namedview31075"
     pagecolor="#ffffff"
     bordercolor="#000000"
     borderopacity="0.25"
     inkscape:showpageshadow="2"
     inkscape:pageopacity="0.0"
     inkscape:pagecheckerboard="0"
     inkscape:deskcolor="#d1d1d1"
     inkscape:document-units="mm"
     showgrid="false"
     inkscape:zoom="0.69130191"
     inkscape:cx="-420.94488"
     inkscape:cy="52.075655"
     inkscape:window-width="1920"
     inkscape:window-height="974"
     inkscape:window-x="-11"
     inkscape:window-y="-11"
     inkscape:window-maximized="1"
     inkscape:current-layer="layer1" />
  <defs
     id="defs31070" />
  <g
     inkscape:label="Layer 1"
     inkscape:groupmode="layer"
     id="layer1"
     transform="translate(-194.63792,-134.55694)">
    <g
       id="g12332"
       transform="matrix(0.26458333,0,0,0.26458333,84.314606,78.200688)">
	<g
   id="g12242">
		<path
   class="st0"
   d="m 420,268 c -1.65,0 -3,-1.35 -3,-3 0,-1.65 1.35,-3 3,-3 1.65,0 3,1.35 3,3 0,1.65 -1.35,3 -3,3 z m 0,-4 c -0.55,0 -1,0.45 -1,1 0,0.55 0.45,1 1,1 0.55,0 1,-0.45 1,-1 0,-0.55 -0.45,-1 -1,-1 z"
   id="path12240"
   style="fill:#3f3a34" />

	</g>

	<g
   id="g12246">
		<path
   class="st0"
   d="m 427,275 c -1.65,0 -3,-1.35 -3,-3 0,-1.65 1.35,-3 3,-3 1.65,0 3,1.35 3,3 0,1.65 -1.35,3 -3,3 z m 0,-4 c -0.55,0 -1,0.45 -1,1 0,0.55 0.45,1 1,1 0.55,0 1,-0.45 1,-1 0,-0.55 -0.45,-1 -1,-1 z"
   id="path12244"
   style="fill:#3f3a34" />

	</g>

	<g
   id="g12250">
		<path
   class="st0"
   d="m 448,247 c -1.65,0 -3,-1.35 -3,-3 0,-1.65 1.35,-3 3,-3 1.65,0 3,1.35 3,3 0,1.65 -1.35,3 -3,3 z m 0,-4 c -0.55,0 -1,0.45 -1,1 0,0.55 0.45,1 1,1 0.55,0 1,-0.45 1,-1 0,-0.55 -0.45,-1 -1,-1 z"
   id="path12248"
   style="fill:#3f3a34" />

	</g>

	<g
   id="g12254">
		<path
   class="st0"
   d="m 448,253 c -4.96,0 -9,-4.04 -9,-9 0,-4.96 4.04,-9 9,-9 4.96,0 9,4.04 9,9 0,4.96 -4.04,9 -9,9 z m 0,-16 c -3.86,0 -7,3.14 -7,7 0,3.86 3.14,7 7,7 3.86,0 7,-3.14 7,-7 0,-3.86 -3.14,-7 -7,-7 z"
   id="path12252"
   style="fill:#3f3a34" />

	</g>

	<g
   id="g12258">
		<path
   class="st0"
   d="m 451.85,261 h -7.7 l -0.81,-4.87 c -0.21,-0.08 -0.42,-0.17 -0.62,-0.26 l -4.02,2.87 -4.84,-4.84 1.41,-1.41 3.64,3.64 3.61,-2.58 0.54,0.27 c 0.49,0.25 0.99,0.46 1.48,0.62 l 0.57,0.19 0.73,4.37 h 4.3 l 0.73,-4.37 0.57,-0.19 c 0.49,-0.16 0.99,-0.37 1.48,-0.62 l 0.54,-0.27 3.61,2.58 3.04,-3.04 -2.58,-3.61 0.27,-0.54 c 0.25,-0.49 0.46,-0.99 0.62,-1.48 l 0.19,-0.57 4.37,-0.73 v -4.3 l -4.37,-0.73 -0.19,-0.57 c -0.16,-0.49 -0.37,-0.99 -0.62,-1.48 l 1.79,-0.9 c 0.2,0.39 0.37,0.78 0.52,1.17 l 4.87,0.81 v 7.7 l -4.87,0.81 c -0.08,0.21 -0.17,0.41 -0.26,0.62 l 2.87,4.02 -5.44,5.44 -4.02,-2.87 c -0.21,0.09 -0.41,0.18 -0.62,0.26 z"
   id="path12256"
   style="fill:#3f3a34" />

	</g>

	<g
   id="g12262">
		<path
   class="st0"
   d="m 436.39,249.83 c -0.2,-0.39 -0.37,-0.78 -0.52,-1.17 L 431,247.85 v -7.7 l 4.87,-0.81 c 0.08,-0.21 0.17,-0.41 0.26,-0.62 l -2.87,-4.02 5.44,-5.44 4.02,2.87 c 0.21,-0.09 0.41,-0.18 0.62,-0.26 l 0.81,-4.87 h 7.7 l 0.81,4.87 c 0.21,0.08 0.41,0.17 0.62,0.26 l 4.02,-2.87 4.84,4.84 -1.41,1.41 -3.64,-3.64 -3.61,2.58 -0.54,-0.27 c -0.49,-0.25 -0.99,-0.46 -1.48,-0.62 l -0.57,-0.19 -0.73,-4.37 h -4.3 l -0.73,4.37 -0.57,0.19 c -0.49,0.16 -0.99,0.37 -1.48,0.62 l -0.54,0.27 -3.61,-2.58 -3.04,3.04 2.58,3.61 -0.27,0.54 c -0.25,0.49 -0.46,0.99 -0.62,1.48 l -0.19,0.57 -4.37,0.73 v 4.3 l 4.37,0.73 0.19,0.57 c 0.16,0.49 0.37,0.99 0.62,1.48 z"
   id="path12260"
   style="fill:#3f3a34" />

	</g>

	<g
   id="g12266">
		<rect
   x="447"
   y="246"
   class="st0"
   width="2"
   height="6"
   id="rect12264"
   style="fill:#3f3a34" />

	</g>

	<g
   id="g12270">
		<rect
   x="447"
   y="231"
   class="st0"
   width="2"
   height="2"
   id="rect12268"
   style="fill:#3f3a34" />

	</g>

	<g
   id="g12274">
		
			<rect
   x="438.51001"
   y="234.50999"
   transform="matrix(0.7071,-0.7071,0.7071,0.7071,-37.8082,379.7475)"
   class="st0"
   width="2"
   height="2"
   id="rect12272"
   style="fill:#3f3a34" />

	</g>

	<g
   id="g12278">
		<rect
   x="435"
   y="243"
   class="st0"
   width="2"
   height="2"
   id="rect12276"
   style="fill:#3f3a34" />

	</g>

	<g
   id="g12282">
		
			<rect
   x="438.51001"
   y="251.49001"
   transform="matrix(0.7071,-0.7071,0.7071,0.7071,-49.8033,384.735)"
   class="st0"
   width="2"
   height="2"
   id="rect12280"
   style="fill:#3f3a34" />

	</g>

	<g
   id="g12286">
		<rect
   x="447"
   y="255"
   class="st0"
   width="2"
   height="2"
   id="rect12284"
   style="fill:#3f3a34" />

	</g>

	<g
   id="g12290">
		
			<rect
   x="455.48999"
   y="251.49001"
   transform="matrix(0.7071,-0.7071,0.7071,0.7071,-44.8276,396.7529)"
   class="st0"
   width="2"
   height="2"
   id="rect12288"
   style="fill:#3f3a34" />

	</g>

	<g
   id="g12294">
		<rect
   x="459"
   y="243"
   class="st0"
   width="2"
   height="2"
   id="rect12292"
   style="fill:#3f3a34" />

	</g>

	<g
   id="g12298">
		
			<rect
   x="455.48999"
   y="234.50999"
   transform="matrix(0.7071,-0.7071,0.7071,0.7071,-32.8325,391.7645)"
   class="st0"
   width="2"
   height="2"
   id="rect12296"
   style="fill:#3f3a34" />

	</g>

	<g
   id="g12302">
		<path
   class="st0"
   d="m 448,265 c -25.49,0 -30.92,-20.55 -30.97,-20.76 l -0.06,-0.24 0.06,-0.24 C 417.08,243.55 422.51,223 448,223 c 25.49,0 30.92,20.55 30.97,20.76 l 0.06,0.24 -0.06,0.24 C 478.92,244.45 473.49,265 448,265 Z m -28.96,-21 c 0.68,2.35 6.28,19 28.96,19 22.48,0 28.3,-16.8 28.96,-19 -0.68,-2.35 -6.28,-19 -28.96,-19 -22.48,0 -28.3,16.8 -28.96,19 z"
   id="path12300"
   style="fill:#3f3a34" />

	</g>

	<g
   id="g12306">
		<path
   class="st0"
   d="m 448,265 c -11.58,0 -21,-9.42 -21,-21 0,-11.58 9.42,-21 21,-21 11.58,0 21,9.42 21,21 0,11.58 -9.42,21 -21,21 z m 0,-40 c -10.48,0 -19,8.52 -19,19 0,10.48 8.52,19 19,19 10.48,0 19,-8.52 19,-19 0,-10.48 -8.52,-19 -19,-19 z"
   id="path12304"
   style="fill:#3f3a34" />

	</g>

	<g
   id="g12310">
		<path
   class="st0"
   d="m 446,273 h -17 v -2 h 17 c 0.55,0 1,-0.45 1,-1 v -3 h 2 v 3 c 0,1.65 -1.35,3 -3,3 z"
   id="path12308"
   style="fill:#3f3a34" />

	</g>

	<g
   id="g12314">
		<path
   class="st0"
   d="m 427,266 h -5 v -2 h 5 c 0.55,0 1,-0.45 1,-1 v -1 h 2 v 1 c 0,1.65 -1.35,3 -3,3 z"
   id="path12312"
   style="fill:#3f3a34" />

	</g>

	<g
   id="g12318">
		<path
   class="st0"
   d="m 476,226 c -1.65,0 -3,-1.35 -3,-3 0,-1.65 1.35,-3 3,-3 1.65,0 3,1.35 3,3 0,1.65 -1.35,3 -3,3 z m 0,-4 c -0.55,0 -1,0.45 -1,1 0,0.55 0.45,1 1,1 0.55,0 1,-0.45 1,-1 0,-0.55 -0.45,-1 -1,-1 z"
   id="path12316"
   style="fill:#3f3a34" />

	</g>

	<g
   id="g12322">
		<path
   class="st0"
   d="m 469,219 c -1.65,0 -3,-1.35 -3,-3 0,-1.65 1.35,-3 3,-3 1.65,0 3,1.35 3,3 0,1.65 -1.35,3 -3,3 z m 0,-4 c -0.55,0 -1,0.45 -1,1 0,0.55 0.45,1 1,1 0.55,0 1,-0.45 1,-1 0,-0.55 -0.45,-1 -1,-1 z"
   id="path12320"
   style="fill:#3f3a34" />

	</g>

	<g
   id="g12326">
		<path
   class="st0"
   d="m 449,221 h -2 v -3 c 0,-1.65 1.35,-3 3,-3 h 17 v 2 h -17 c -0.55,0 -1,0.45 -1,1 z"
   id="path12324"
   style="fill:#3f3a34" />

	</g>

	<g
   id="g12330">
		<path
   class="st0"
   d="m 468,226 h -2 v -1 c 0,-1.65 1.35,-3 3,-3 h 5 v 2 h -5 c -0.55,0 -1,0.45 -1,1 z"
   id="path12328"
   style="fill:#3f3a34" />

	</g>

</g>
  </g>
</svg>
