<?xml version="1.0" encoding="UTF-8" standalone="no"?>
<!-- Created with Inkscape (http://www.inkscape.org/) -->

<svg
   width="16.404167mm"
   height="16.404167mm"
   viewBox="0 0 16.404167 16.404167"
   version="1.1"
   id="svg36880"
   inkscape:version="1.2 (dc2aedaf03, 2022-05-15)"
   sodipodi:docname="data-engineering.svg"
   xmlns:inkscape="http://www.inkscape.org/namespaces/inkscape"
   xmlns:sodipodi="http://sodipodi.sourceforge.net/DTD/sodipodi-0.dtd"
   xmlns="http://www.w3.org/2000/svg"
   xmlns:svg="http://www.w3.org/2000/svg">
  <sodipodi:namedview
     id="namedview36882"
     pagecolor="#ffffff"
     bordercolor="#000000"
     borderopacity="0.25"
     inkscape:showpageshadow="2"
     inkscape:pageopacity="0.0"
     inkscape:pagecheckerboard="0"
     inkscape:deskcolor="#d1d1d1"
     inkscape:document-units="mm"
     showgrid="false"
     inkscape:zoom="0.69130191"
     inkscape:cx="-222.76808"
     inkscape:cy="23.144736"
     inkscape:window-width="1920"
     inkscape:window-height="974"
     inkscape:window-x="-11"
     inkscape:window-y="-11"
     inkscape:window-maximized="1"
     inkscape:current-layer="layer1" />
  <defs
     id="defs36877" />
  <g
     inkscape:label="Layer 1"
     inkscape:groupmode="layer"
     id="layer1"
     transform="translate(-142.21158,-142.21158)">
    <g
       id="g27702"
       transform="matrix(0.26458333,0,0,0.26458333,133.48033,85.855327)">
	<g
   id="g27634">
		<rect
   x="48"
   y="239"
   width="32"
   height="2"
   id="rect27632" />

	</g>

	<g
   id="g27638">
		<rect
   x="67"
   y="243"
   width="13"
   height="2"
   id="rect27636" />

	</g>

	<g
   id="g27642">
		<rect
   x="48"
   y="243"
   width="13"
   height="2"
   id="rect27640" />

	</g>

	<g
   id="g27646">
		<rect
   x="67"
   y="235"
   width="13"
   height="2"
   id="rect27644" />

	</g>

	<g
   id="g27650">
		<rect
   x="48"
   y="235"
   width="13"
   height="2"
   id="rect27648" />

	</g>

	<g
   id="g27654">
		<rect
   x="48"
   y="231"
   width="32"
   height="2"
   id="rect27652" />

	</g>

	<g
   id="g27658">
		<path
   d="m 80,257 v -2 c 2.21,0 4,-1.79 4,-4 v -5.17 c 0,-1.75 0.6,-3.46 1.67,-4.83 C 84.6,239.63 84,237.92 84,236.17 V 231 c 0,-2.21 -1.79,-4 -4,-4 v -2 c 3.31,0 6,2.69 6,6 v 5.17 c 0,1.53 0.62,3.04 1.71,4.12 l 0.71,0.71 -0.71,0.71 C 86.63,242.8 86,244.3 86,245.83 V 251 c 0,3.31 -2.69,6 -6,6 z"
   id="path27656" />

	</g>

	<g
   id="g27662">
		<path
   d="m 48,257 c -3.31,0 -6,-2.69 -6,-6 v -5.17 c 0,-1.53 -0.62,-3.04 -1.71,-4.12 l -0.7,-0.71 0.71,-0.71 c 1.08,-1.09 1.71,-2.59 1.71,-4.12 V 231 c 0,-3.31 2.69,-6 6,-6 v 2 c -2.21,0 -4,1.79 -4,4 v 5.17 c 0,1.75 -0.6,3.46 -1.67,4.83 1.07,1.37 1.67,3.08 1.67,4.83 V 251 c 0,2.21 1.79,4 4,4 v 2 z"
   id="path27660" />

	</g>

	<g
   id="g27666">
		<path
   d="m 66.78,275 h -5.56 l -0.62,-2.5 c -0.8,-0.24 -1.58,-0.56 -2.31,-0.96 l -2.21,1.33 -3.93,-3.93 1.33,-2.21 c -0.4,-0.74 -0.72,-1.51 -0.96,-2.31 l -2.5,-0.62 v -5.56 l 2.5,-0.62 c 0.24,-0.8 0.56,-1.58 0.96,-2.31 l -1.33,-2.21 3.93,-3.93 2.21,1.33 c 0.74,-0.4 1.51,-0.72 2.31,-0.96 l 0.62,-2.5 h 5.56 l 0.62,2.5 c 0.8,0.24 1.58,0.56 2.31,0.96 l 2.21,-1.33 3.93,3.93 -1.33,2.21 c 0.4,0.74 0.72,1.51 0.96,2.31 l 2.5,0.62 v 5.56 l -2.5,0.62 c -0.24,0.8 -0.56,1.58 -0.96,2.31 l 1.33,2.21 -3.93,3.93 -2.21,-1.33 c -0.74,0.4 -1.51,0.72 -2.31,0.96 z m -4,-2 h 2.44 l 0.54,-2.15 0.59,-0.14 c 1.01,-0.24 1.97,-0.64 2.86,-1.19 l 0.52,-0.32 1.9,1.14 1.72,-1.72 -1.14,-1.9 0.32,-0.52 c 0.54,-0.89 0.94,-1.85 1.19,-2.86 l 0.14,-0.59 2.15,-0.54 v -2.44 l -2.15,-0.54 -0.14,-0.59 c -0.24,-1.01 -0.64,-1.97 -1.19,-2.86 l -0.32,-0.52 1.14,-1.9 -1.72,-1.72 -1.9,1.14 -0.52,-0.32 c -0.89,-0.54 -1.85,-0.94 -2.86,-1.19 L 65.76,251.13 65.22,249 h -2.44 l -0.54,2.15 -0.59,0.14 c -1.01,0.24 -1.97,0.64 -2.86,1.19 l -0.52,0.32 -1.9,-1.14 -1.72,1.72 1.14,1.9 -0.32,0.52 c -0.54,0.89 -0.94,1.85 -1.19,2.86 l -0.14,0.59 -2.14,0.53 v 2.44 l 2.15,0.54 0.14,0.59 c 0.24,1.01 0.64,1.97 1.19,2.86 l 0.32,0.52 -1.14,1.9 1.72,1.72 1.9,-1.14 0.52,0.32 c 0.89,0.54 1.85,0.94 2.86,1.19 l 0.59,0.14 z"
   id="path27664" />

	</g>

	<g
   id="g27670">
		<path
   d="m 64,265 c -2.21,0 -4,-1.79 -4,-4 0,-2.21 1.79,-4 4,-4 2.21,0 4,1.79 4,4 0,2.21 -1.79,4 -4,4 z m 0,-6 c -1.1,0 -2,0.9 -2,2 0,1.1 0.9,2 2,2 1.1,0 2,-0.9 2,-2 0,-1.1 -0.9,-2 -2,-2 z"
   id="path27668" />

	</g>

	<g
   id="g27680">
		<g
   id="g27674">
			<path
   d="m 71.04,264.81 -1.76,-0.95 C 69.75,262.98 70,262 70,261 c 0,-3.31 -2.69,-6 -6,-6 -1,0 -1.98,0.25 -2.85,0.72 l -0.95,-1.76 c 1.16,-0.63 2.48,-0.96 3.81,-0.96 4.41,0 8,3.59 8,8 -0.01,1.33 -0.34,2.65 -0.97,3.81 z"
   id="path27672" />

		</g>

		<g
   id="g27678">
			<path
   d="m 64,269 c -4.41,0 -8,-3.59 -8,-8 0,-1.33 0.33,-2.65 0.96,-3.81 l 1.76,0.95 C 58.25,259.02 58,260 58,261 c 0,3.31 2.69,6 6,6 1,0 1.98,-0.25 2.85,-0.72 l 0.95,1.76 C 66.65,268.67 65.33,269 64,269 Z"
   id="path27676" />

		</g>

	</g>

	<g
   id="g27684">
		<path
   d="M 95,262 H 77 v -2 h 16 v -44 c 0,-0.55 -0.45,-1 -1,-1 H 36 c -0.55,0 -1,0.45 -1,1 v 44 h 16 v 2 H 33 v -46 c 0,-1.65 1.35,-3 3,-3 h 56 c 1.65,0 3,1.35 3,3 z"
   id="path27682" />

	</g>

	<g
   id="g27688">
		<rect
   x="34"
   y="221"
   width="60"
   height="2"
   id="rect27686" />

	</g>

	<g
   id="g27692">
		<rect
   x="37"
   y="217"
   width="2"
   height="2"
   id="rect27690" />

	</g>

	<g
   id="g27696">
		<rect
   x="41"
   y="217"
   width="2"
   height="2"
   id="rect27694" />

	</g>

	<g
   id="g27700">
		<rect
   x="45"
   y="217"
   width="2"
   height="2"
   id="rect27698" />

	</g>

</g>
  </g>
</svg>
