<?xml version="1.0" encoding="utf-8"?>
<!-- Generator: Adobe Illustrator 26.5.0, SVG Export Plug-In . SVG Version: 6.00 Build 0)  -->
<svg version="1.1" id="Layer_1" xmlns="http://www.w3.org/2000/svg" xmlns:xlink="http://www.w3.org/1999/xlink" x="0px" y="0px"
	 viewBox="0 0 608 608" style="enable-background:new 0 0 608 608;" xml:space="preserve">
<style type="text/css">
	.st0{fill:#3F3A34;}
</style>
<g>
	<g>
		<path class="st0" d="M90,179H38c-2.76,0-5-2.24-5-5v-5h18v2H35v3c0,1.65,1.35,3,3,3h52c1.65,0,3-1.35,3-3v-3H77v-2h18v5
			C95,176.76,92.76,179,90,179z"/>
	</g>
	<g>
		<path class="st0" d="M72,175H56c-1.65,0-3-1.35-3-3v-3h22v3C75,173.65,73.65,175,72,175z M55,171v1c0,0.55,0.45,1,1,1h16
			c0.55,0,1-0.45,1-1v-1H55z"/>
	</g>
	<g>
		<rect x="39" y="173" class="st0" width="2" height="2"/>
	</g>
	<g>
		<rect x="43" y="173" class="st0" width="2" height="2"/>
	</g>
	<g>
		<rect x="47" y="173" class="st0" width="2" height="2"/>
	</g>
	<g>
		<path class="st0" d="M93,167h-2v-36c0-1.65-1.35-3-3-3h-5v-2h5c2.76,0,5,2.24,5,5V167z"/>
	</g>
	<g>
		<path class="st0" d="M37,167h-2v-36c0-2.76,2.24-5,5-5h5v2h-5c-1.65,0-3,1.35-3,3V167z"/>
	</g>
	<g>
		<path class="st0" d="M89,167h-2v-35h-4v-2h4c1.1,0,2,0.9,2,2V167z"/>
	</g>
	<g>
		<path class="st0" d="M41,167h-2v-35c0-1.1,0.9-2,2-2h4v2h-4V167z"/>
	</g>
	<g>
		<path class="st0" d="M64,153c-9.92,0-18-8.08-18-18s8.08-18,18-18s18,8.08,18,18S73.92,153,64,153z M64,119c-8.82,0-16,7.18-16,16
			s7.18,16,16,16s16-7.18,16-16S72.82,119,64,119z"/>
	</g>
	<g>
		<path class="st0" d="M64,149c-7.72,0-14-6.28-14-14s6.28-14,14-14s14,6.28,14,14S71.72,149,64,149z M64,123c-6.62,0-12,5.38-12,12
			s5.38,12,12,12s12-5.38,12-12S70.62,123,64,123z"/>
	</g>
	<g>
		<rect x="58" y="151" class="st0" width="2" height="16"/>
	</g>
	<g>
		<rect x="68" y="151" class="st0" width="2" height="16"/>
	</g>
	<g>
		<rect x="56" y="155" class="st0" width="16" height="2"/>
	</g>
	<g>
		<rect x="55" y="138" class="st0" width="18" height="2"/>
	</g>
	<g>
		<rect x="57" y="132" class="st0" width="2" height="7"/>
	</g>
	<g>
		<rect x="61" y="130" class="st0" width="2" height="9"/>
	</g>
	<g>
		<rect x="65" y="132" class="st0" width="2" height="7"/>
	</g>
	<g>
		<rect x="69" y="128" class="st0" width="2" height="11"/>
	</g>
</g>
<g>
	<g>
		<g>
			<path class="st0" d="M189,127h-60v-10h60V127z M131,125h56v-6h-56V125z"/>
		</g>
	</g>
	<g>
		<polygon class="st0" points="159,170 129,170 129,129 131,129 131,168 159,168 		"/>
	</g>
	<g>
		<rect x="187" y="129" class="st0" width="2" height="8"/>
	</g>
	<g>
		<rect x="133" y="121" class="st0" width="2" height="2"/>
	</g>
	<g>
		<rect x="137" y="121" class="st0" width="2" height="2"/>
	</g>
	<g>
		<rect x="141" y="121" class="st0" width="2" height="2"/>
	</g>
	<g>
		<rect x="133" y="155" class="st0" width="26" height="2"/>
	</g>
	<g>
		<polygon class="st0" points="143,153 141,153 141,143 137,143 137,153 135,153 135,141 143,141 		"/>
	</g>
	<g>
		<polygon class="st0" points="153,153 151,153 151,139 147,139 147,153 145,153 145,137 153,137 		"/>
	</g>
	<g>
		<polygon class="st0" points="157,153 155,153 155,131 163,131 163,137 161,137 161,133 157,133 		"/>
	</g>
	<g>
		<polygon class="st0" points="173,137 171,137 171,135 167,135 167,137 165,137 165,133 173,133 		"/>
	</g>
	<g>
		<polygon class="st0" points="183,137 181,137 181,131 177,131 177,137 175,137 175,129 183,129 		"/>
	</g>
	<g>
		<path class="st0" d="M175,163h-10v-10h10V163z M167,161h6v-6h-6V161z"/>
	</g>
	<g>
		<path class="st0" d="M187,163h-10v-10h10V163z M179,161h6v-6h-6V161z"/>
	</g>
	<g>
		<path class="st0" d="M175,175h-10v-10h10V175z M167,173h6v-6h-6V173z"/>
	</g>
	<g>
		<path class="st0" d="M187,175h-10v-10h10V175z M179,173h6v-6h-6V173z"/>
	</g>
	<g>
		<path class="st0" d="M191,179h-30v-40h30V179z M163,177h26v-36h-26V177z"/>
	</g>
	<g>
		<path class="st0" d="M188,151h-23v-8h23V151z M167,149h19v-4h-19V149z"/>
	</g>
</g>
<g>
	<g>
		<path class="st0" d="M255,148c-2.77,0-5.41-1.3-7.11-3.48l-0.84,0.84c-1.7,1.7-3.96,2.64-6.36,2.64H235v-2h5.69
			c1.87,0,3.63-0.73,4.95-2.05l2.47-2.47l1.29,1.72c1.32,1.75,3.41,2.8,5.6,2.8V148z"/>
	</g>
	<g>
		
			<rect x="229.96" y="173.5" transform="matrix(0.1416 -0.9899 0.9899 0.1416 27.7027 380.9461)" class="st0" width="7.07" height="2"/>
	</g>
	<g>
		<path class="st0" d="M236.03,153.92c-2.13,0-3.87-1.73-3.87-3.87c0-2.13,1.73-3.87,3.87-3.87v2c-1.03,0-1.87,0.84-1.87,1.87
			c0,1.03,0.84,1.87,1.87,1.87V153.92z"/>
	</g>
	<g>
		<path class="st0" d="M247.17,161h-4.34c-0.8,0-1.55-0.31-2.12-0.88l-4.24-4.24c-0.94-0.94-1.46-2.2-1.46-3.54V147h2v5.34
			c0,0.8,0.31,1.56,0.88,2.12l4.24,4.24c0.19,0.19,0.44,0.29,0.71,0.29h4.34c0.26,0,0.52-0.11,0.71-0.29l4.24-4.24
			c0.57-0.57,0.88-1.32,0.88-2.12V147h2v5.34c0,1.34-0.52,2.59-1.46,3.54l-4.24,4.24C248.73,160.69,247.97,161,247.17,161z"/>
	</g>
	<g>
		<path class="st0" d="M254,154v-2c1.1,0,2-0.9,2-2s-0.9-2-2-2v-2c2.21,0,4,1.79,4,4S256.21,154,254,154z"/>
	</g>
	<g>
		<path class="st0" d="M256,147h-2v-5c0-1.1-0.9-2-2-2h-0.62l-0.28-0.55c-1.06-2.13-3.2-3.45-5.58-3.45H245c-4.96,0-9,4.04-9,9v2h-2
			v-2c0-6.07,4.93-11,11-11h0.53c2.95,0,5.61,1.54,7.09,4.05c1.91,0.3,3.38,1.96,3.38,3.95V147z"/>
	</g>
	<g>
		
			<rect x="255.5" y="170.96" transform="matrix(0.9899 -0.1414 0.1414 0.9899 -22.1001 38.0284)" class="st0" width="2" height="7.07"/>
	</g>
	<g>
		<path class="st0" d="M265.18,179h-40.36l1.35-8.11c0.58-3.45,3.13-6.28,6.51-7.2l5.32-1.45V161h2v2.76l-6.79,1.85
			c-2.63,0.72-4.61,2.92-5.06,5.6l-0.96,5.78h35.64l-0.96-5.78c-0.45-2.69-2.44-4.89-5.06-5.6l-6.79-1.85V161h2v1.24l5.32,1.45
			c3.38,0.92,5.93,3.75,6.51,7.2L265.18,179z"/>
	</g>
	<g>
		<polygon class="st0" points="250.67,169.75 245.67,166 244.33,166 239.33,169.75 238.02,163.2 239.98,162.8 240.67,166.25 
			243.67,164 246.33,164 249.33,166.25 250.02,162.8 251.98,163.2 		"/>
	</g>
	<g>
		<polygon class="st0" points="241.97,178.24 240.03,177.76 241.92,170.19 240.17,167.55 241.83,166.45 244.08,169.81 		"/>
	</g>
	<g>
		<polygon class="st0" points="248.03,178.24 245.92,169.81 248.17,166.45 249.83,167.55 248.08,170.19 249.97,177.76 		"/>
	</g>
	<g>
		<path class="st0" d="M284,123h-40c-1.65,0-3-1.35-3-3s1.35-3,3-3h40c1.65,0,3,1.35,3,3S285.65,123,284,123z M244,119
			c-0.55,0-1,0.45-1,1s0.45,1,1,1h40c0.55,0,1-0.45,1-1s-0.45-1-1-1H244z"/>
	</g>
	<g>
		<polygon class="st0" points="285,156 257,156 257,154 283,154 283,125 285,125 		"/>
	</g>
	<g>
		<rect x="243" y="125" class="st0" width="2" height="7"/>
	</g>
	<g>
		<path class="st0" d="M278,133c-1.65,0-3-1.35-3-3s1.35-3,3-3s3,1.35,3,3S279.65,133,278,133z M278,129c-0.55,0-1,0.45-1,1
			s0.45,1,1,1c0.55,0,1-0.45,1-1S278.55,129,278,129z"/>
	</g>
	<g>
		<path class="st0" d="M270,143c-1.65,0-3-1.35-3-3s1.35-3,3-3s3,1.35,3,3S271.65,143,270,143z M270,139c-0.55,0-1,0.45-1,1
			s0.45,1,1,1c0.55,0,1-0.45,1-1S270.55,139,270,139z"/>
	</g>
	<g>
		<path class="st0" d="M260,136c-1.65,0-3-1.35-3-3s1.35-3,3-3s3,1.35,3,3S261.65,136,260,136z M260,132c-0.55,0-1,0.45-1,1
			s0.45,1,1,1c0.55,0,1-0.45,1-1S260.55,132,260,132z"/>
	</g>
	<g>
		
			<rect x="253.55" y="134.5" transform="matrix(0.832 -0.5547 0.5547 0.832 -32.124 164.9071)" class="st0" width="5.41" height="2"/>
	</g>
	<g>
		
			<rect x="263.71" y="132.29" transform="matrix(0.5734 -0.8193 0.8193 0.5734 1.2539 275.0078)" class="st0" width="2" height="8.02"/>
	</g>
	<g>
		
			<rect x="269.98" y="133.62" transform="matrix(0.6247 -0.7809 0.7809 0.6247 -2.1784 264.7176)" class="st0" width="8.64" height="2"/>
	</g>
	<g>
		<rect x="267" y="150" class="st0" width="14" height="2"/>
	</g>
	<g>
		<rect x="267" y="146" class="st0" width="10" height="2"/>
	</g>
	<g>
		<rect x="279" y="146" class="st0" width="2" height="2"/>
	</g>
</g>
<g>
	<g>
		<path class="st0" d="M350.89,179h-9.79l-0.76-6.88c-1.1-0.34-2.15-0.78-3.16-1.3l-5.4,4.32l-6.92-6.92l4.32-5.4
			c-0.53-1-0.96-2.06-1.3-3.16l-6.88-0.76v-9.79l6.88-0.76c0.34-1.1,0.78-2.15,1.3-3.16l-4.32-5.4l6.92-6.92l5.4,4.32
			c1-0.53,2.06-0.96,3.16-1.3l0.76-6.88h9.79l0.76,6.88c1.1,0.34,2.15,0.78,3.16,1.3l5.4-4.32l6.92,6.92l-4.32,5.4
			c0.63,1.2,1.13,2.48,1.5,3.81l-1.93,0.53c-0.38-1.39-0.93-2.72-1.63-3.95l-0.34-0.59l4.04-5.05l-4.39-4.39l-5.05,4.04l-0.59-0.34
			c-1.23-0.7-2.56-1.25-3.95-1.63l-0.66-0.18l-0.71-6.44h-6.21l-0.71,6.44l-0.66,0.18c-1.39,0.38-2.72,0.93-3.95,1.63l-0.59,0.34
			l-5.05-4.04l-4.39,4.39l4.04,5.05l-0.34,0.59c-0.7,1.23-1.25,2.56-1.63,3.95l-0.18,0.66l-6.44,0.71v6.21l6.44,0.71l0.18,0.66
			c0.38,1.39,0.93,2.72,1.63,3.95l0.34,0.59l-4.04,5.05l4.39,4.39l5.05-4.04l0.59,0.34c1.23,0.7,2.56,1.25,3.95,1.63l0.66,0.18
			l0.71,6.44h6.21l0.71-6.44l0.66-0.18c1.39-0.38,2.72-0.93,3.95-1.63l0.59-0.34l5.05,4.04l5.02-5.02l1.41,1.41l-6.29,6.29
			l-5.4-4.32c-1,0.53-2.06,0.96-3.16,1.3L350.89,179z"/>
	</g>
	<g>
		<path class="st0" d="M346,166c-6.62,0-12-5.38-12-12s5.38-12,12-12c4.98,0,9.37,3,11.18,7.64l-1.86,0.73
			c-1.51-3.87-5.17-6.36-9.32-6.36c-5.51,0-10,4.49-10,10s4.49,10,10,10c1.95,0,3.83-0.56,5.45-1.62l1.09,1.68
			C350.6,165.33,348.33,166,346,166z"/>
	</g>
	<g>
		<path class="st0" d="M362.89,167h-9.79l-0.76-6.88c-1.1-0.34-2.15-0.78-3.16-1.3l-5.4,4.32l-6.92-6.92l4.32-5.4
			c-0.63-1.2-1.13-2.48-1.5-3.81l1.93-0.53c0.38,1.39,0.93,2.72,1.63,3.95l0.34,0.59l-4.04,5.05l4.39,4.39l5.05-4.04l0.59,0.34
			c1.23,0.7,2.56,1.25,3.95,1.63l0.66,0.18l0.71,6.44h6.21l0.71-6.44l0.66-0.18c1.39-0.38,2.72-0.93,3.95-1.63l0.59-0.34l5.05,4.04
			l4.39-4.39l-4.04-5.05l0.34-0.59c0.7-1.23,1.25-2.56,1.63-3.95l0.18-0.66l6.44-0.71v-6.21l-6.44-0.71l-0.18-0.66
			c-0.38-1.39-0.93-2.72-1.63-3.95l-0.34-0.59l4.04-5.05l-4.39-4.39l-5.05,4.04l-0.59-0.34c-1.23-0.7-2.56-1.25-3.95-1.63
			l-0.66-0.18l-0.71-6.44h-6.21l-0.71,6.44l-0.66,0.18c-1.39,0.38-2.72,0.93-3.95,1.63l-0.59,0.34l-5.05-4.04l-5.02,5.02l-1.41-1.41
			l6.29-6.29l5.4,4.32c1-0.53,2.06-0.96,3.16-1.3l0.76-6.88h9.79l0.76,6.88c1.1,0.34,2.15,0.78,3.16,1.3l5.4-4.32l6.92,6.92
			l-4.32,5.4c0.53,1,0.96,2.06,1.3,3.16l6.88,0.76v9.79l-6.88,0.76c-0.34,1.1-0.78,2.15-1.3,3.16l4.32,5.4l-6.92,6.92l-5.4-4.32
			c-1,0.53-2.06,0.96-3.16,1.3L362.89,167z"/>
	</g>
	<g>
		<path class="st0" d="M358,154c-4.98,0-9.37-3-11.18-7.64l1.86-0.73c1.51,3.87,5.17,6.36,9.32,6.36c5.51,0,10-4.49,10-10
			s-4.49-10-10-10c-1.6,0-3.13,0.37-4.54,1.09l-0.91-1.78c1.7-0.87,3.53-1.31,5.46-1.31c6.62,0,12,5.38,12,12S364.62,154,358,154z"
			/>
	</g>
	<g>
		<rect x="357" y="123" class="st0" width="2" height="2"/>
	</g>
	<g>
		
			<rect x="344.27" y="153.73" transform="matrix(0.7071 -0.7071 0.7071 0.7071 -8.2809 289.4631)" class="st0" width="2" height="2"/>
	</g>
	<g>
		<rect x="357" y="159" class="st0" width="2" height="2"/>
	</g>
	<g>
		
			<rect x="369.73" y="153.73" transform="matrix(0.7071 -0.7071 0.7071 0.7071 -0.8307 307.4494)" class="st0" width="2" height="2"/>
	</g>
	<g>
		<rect x="375" y="141" class="st0" width="2" height="2"/>
	</g>
	<g>
		
			<rect x="369.73" y="128.27" transform="matrix(0.7071 -0.7071 0.7071 0.7071 17.1741 300.007)" class="st0" width="2" height="2"/>
	</g>
	<g>
		<rect x="345" y="135" class="st0" width="2" height="2"/>
	</g>
	<g>
		
			<rect x="332.27" y="140.27" transform="matrix(0.7071 -0.7071 0.7071 0.7071 -2.2767 277.0488)" class="st0" width="2" height="2"/>
	</g>
	<g>
		<rect x="327" y="153" class="st0" width="2" height="2"/>
	</g>
	<g>
		
			<rect x="332.27" y="165.73" transform="matrix(0.7071 -0.7071 0.7071 0.7071 -20.2809 284.4926)" class="st0" width="2" height="2"/>
	</g>
	<g>
		<rect x="345" y="171" class="st0" width="2" height="2"/>
	</g>
	<g>
		
			<rect x="357.73" y="140.27" transform="matrix(0.7071 -0.7071 0.7071 0.7071 5.1741 295.0364)" class="st0" width="2" height="2"/>
	</g>
</g>
<g>
	<g>
		<path class="st0" d="M463.96,130.08C463.49,123.87,458.24,119,452,119c-4.14,0-7.94,2.09-10.15,5.6l-1.69-1.07
			c2.58-4.09,7.01-6.54,11.85-6.54c7.28,0,13.41,5.68,13.96,12.92L463.96,130.08z"/>
	</g>
	<g>
		<path class="st0" d="M429,153c-6.62,0-12-5.38-12-12s5.38-12,12-12c0.73,0,1.46,0.07,2.18,0.2l-0.36,1.97
			c-0.6-0.11-1.21-0.16-1.82-0.16c-5.51,0-10,4.49-10,10s4.49,10,10,10V153z"/>
	</g>
	<g>
		<path class="st0" d="M467,153v-2c5.51,0,10-4.49,10-10s-4.49-10-10-10s-10,4.49-10,10h-2c0-6.62,5.38-12,12-12
			c6.62,0,12,5.38,12,12S473.62,153,467,153z"/>
	</g>
	<g>
		<path class="st0" d="M439,141c-4.96,0-9-4.04-9-9c0-4.96,4.04-9,9-9c4.96,0,9,4.04,9,9h-2c0-3.86-3.14-7-7-7c-3.86,0-7,3.14-7,7
			s3.14,7,7,7V141z"/>
	</g>
	<g>
		<path class="st0" d="M465,179h-34v-36h34V179z M433,177h30v-32h-30V177z"/>
	</g>
	<g>
		<rect x="435" y="163" class="st0" width="26" height="2"/>
	</g>
	<g>
		<rect x="437" y="154" class="st0" width="2" height="10"/>
	</g>
	<g>
		<rect x="441" y="150" class="st0" width="2" height="14"/>
	</g>
	<g>
		<rect x="445" y="148" class="st0" width="2" height="16"/>
	</g>
	<g>
		<rect x="449" y="152" class="st0" width="2" height="12"/>
	</g>
	<g>
		<rect x="453" y="150" class="st0" width="2" height="14"/>
	</g>
	<g>
		<rect x="457" y="147" class="st0" width="2" height="17"/>
	</g>
	<g>
		<rect x="459" y="167" class="st0" width="2" height="2"/>
	</g>
	<g>
		<rect x="439" y="167" class="st0" width="18" height="2"/>
	</g>
	<g>
		<rect x="435" y="167" class="st0" width="2" height="2"/>
	</g>
	<g>
		<rect x="459" y="173" class="st0" width="2" height="2"/>
	</g>
	<g>
		<rect x="449" y="173" class="st0" width="8" height="2"/>
	</g>
</g>
<g>
	<g>
		<polygon class="st0" points="571,179 513,179 513,129 515,129 515,177 571,177 		"/>
	</g>
	<g>
		<polygon class="st0" points="571,173 519,173 519,129 521,129 521,171 571,171 		"/>
	</g>
	<g>
		<path class="st0" d="M564,173c-2.82,0-5.26-1.91-5.94-4.64l-5.85-23.39c-1.17-4.69-5.37-7.97-10.21-7.97
			c-4.84,0-9.04,3.28-10.21,7.97l-5.85,23.39c-0.68,2.73-3.12,4.64-5.94,4.64v-2c1.9,0,3.54-1.28,4-3.12l5.85-23.39
			c1.4-5.59,6.39-9.49,12.15-9.49c5.76,0,10.76,3.9,12.15,9.49l5.85,23.39c0.46,1.84,2.1,3.12,4,3.12V173z"/>
	</g>
	<g>
		<rect x="541" y="136" class="st0" width="2" height="36"/>
	</g>
	<g>
		
			<rect x="541.47" y="139.29" transform="matrix(0.8682 -0.4961 0.4961 0.8682 2.2738 289.1342)" class="st0" width="8.06" height="2"/>
	</g>
	<g>
		
			<rect x="541.22" y="143.93" transform="matrix(0.8682 -0.4961 0.4961 0.8682 0.1845 290.5522)" class="st0" width="11.81" height="2"/>
	</g>
	<g>
		
			<rect x="541.09" y="149" transform="matrix(0.8682 -0.4961 0.4961 0.8682 -2.2198 291.6408)" class="st0" width="13.82" height="2"/>
	</g>
	<g>
		
			<rect x="541.01" y="154.29" transform="matrix(0.8682 -0.4961 0.4961 0.8682 -4.7763 292.5853)" class="st0" width="14.97" height="2"/>
	</g>
	<g>
		
			<rect x="540.94" y="159.57" transform="matrix(0.8682 -0.4961 0.4961 0.8682 -7.3328 293.5297)" class="st0" width="16.12" height="2"/>
	</g>
	<g>
		
			<rect x="541.13" y="164.79" transform="matrix(0.8682 -0.4961 0.4961 0.8682 -9.8375 294.5268)" class="st0" width="16.99" height="2"/>
	</g>
	<g>
		
			<rect x="547.78" y="168.29" transform="matrix(0.8682 -0.4961 0.4961 0.8682 -11.0963 296.7864)" class="st0" width="10.94" height="2"/>
	</g>
	<g>
		<path class="st0" d="M537,131h-14v-14h14V131z M525,129h10v-10h-10V129z"/>
	</g>
	<g>
		<rect x="527" y="121" class="st0" width="6" height="2"/>
	</g>
	<g>
		<polygon class="st0" points="541,133 539,133 539,125 536,125 536,123 541,123 		"/>
	</g>
	<g>
		<rect x="527" y="125" class="st0" width="6" height="2"/>
	</g>
	<g>
		<path class="st0" d="M565,133h-14v-14h14V133z M553,131h10v-10h-10V131z"/>
	</g>
	<g>
		<rect x="555" y="123" class="st0" width="6" height="2"/>
	</g>
	<g>
		<polygon class="st0" points="549,134 547,134 547,125 552,125 552,127 549,127 		"/>
	</g>
	<g>
		<rect x="555" y="127" class="st0" width="6" height="2"/>
	</g>
	<g>
		<path class="st0" d="M575,156h-14v-14h14V156z M563,154h10v-10h-10V154z"/>
	</g>
	<g>
		<rect x="565" y="150" class="st0" width="6" height="2"/>
	</g>
	<g>
		<rect x="565" y="146" class="st0" width="6" height="2"/>
	</g>
	<g>
		<rect x="557" y="148" class="st0" width="5" height="2"/>
	</g>
</g>
<g>
	<g>
		<path class="st0" d="M90,269H38c-2.76,0-5-2.24-5-5v-3h62v3C95,266.76,92.76,269,90,269z M35,263v1c0,1.65,1.35,3,3,3h52
			c1.65,0,3-1.35,3-3v-1H35z"/>
	</g>
	<g>
		<path class="st0" d="M95,259h-2v-32c0-1.65-1.35-3-3-3h-5v-2h5c2.76,0,5,2.24,5,5V259z"/>
	</g>
	<g>
		<path class="st0" d="M35,259h-2v-32c0-2.76,2.24-5,5-5h5v2h-5c-1.65,0-3,1.35-3,3V259z"/>
	</g>
	<g>
		<path class="st0" d="M83,259H45v-46h38V259z M47,257h34v-42H47V257z"/>
	</g>
	<g>
		<path class="st0" d="M79,235H49v-18h30V235z M51,233h26v-14H51V233z"/>
	</g>
	<g>
		<rect x="53" y="221" class="st0" width="2" height="2"/>
	</g>
	<g>
		<rect x="57" y="221" class="st0" width="18" height="2"/>
	</g>
	<g>
		<rect x="73" y="229" class="st0" width="2" height="2"/>
	</g>
	<g>
		<rect x="53" y="229" class="st0" width="18" height="2"/>
	</g>
	<g>
		<rect x="53" y="225" class="st0" width="22" height="2"/>
	</g>
	<g>
		<path class="st0" d="M59,255h-8v-10h8V255z M53,253h4v-6h-4V253z"/>
	</g>
	<g>
		<path class="st0" d="M65,255h-8v-12h8V255z M59,253h4v-8h-4V253z"/>
	</g>
	<g>
		<path class="st0" d="M71,255h-8v-16h8V255z M65,253h4v-12h-4V253z"/>
	</g>
	<g>
		<path class="st0" d="M77,255h-8v-8h8V255z M71,253h4v-4h-4V253z"/>
	</g>
	<g>
		<rect x="52" y="268" class="st0" width="2" height="6"/>
	</g>
	<g>
		<rect x="74" y="268" class="st0" width="2" height="6"/>
	</g>
	<g>
		<rect x="48" y="273" class="st0" width="32" height="2"/>
	</g>
	<g>
		<polygon class="st0" points="87,251 82,251 82,249 85,249 85,247 87,247 		"/>
	</g>
	<g>
		<polygon class="st0" points="87,245 85,245 85,228 91,228 91,230 87,230 		"/>
	</g>
	<g>
		<rect x="86" y="232" class="st0" width="5" height="2"/>
	</g>
	<g>
		<polygon class="st0" points="43,236 41,236 41,232 46,232 46,234 43,234 		"/>
	</g>
	<g>
		<polygon class="st0" points="43,255 37,255 37,253 41,253 41,238 43,238 		"/>
	</g>
	<g>
		<rect x="37" y="249" class="st0" width="5" height="2"/>
	</g>
</g>
<g>
	<g>
		<path class="st0" d="M176.73,275h-5.46l-0.76-2.42c-1.54-0.37-3-0.97-4.35-1.8l-2.24,1.17l-3.35-3.35l1.41-1.41l2.31,2.31
			l1.98-1.03l0.49,0.33c1.43,0.96,3.01,1.62,4.71,1.95l0.58,0.11l0.67,2.14h2.54l0.67-2.14l0.58-0.11c1.7-0.33,3.28-0.99,4.71-1.95
			l0.49-0.33l1.98,1.03l1.79-1.79l-1.03-1.98l0.33-0.49c0.96-1.43,1.62-3.01,1.95-4.71l0.11-0.58l2.14-0.67v-2.54l-2.14-0.67
			l-0.11-0.58c-0.33-1.7-0.99-3.28-1.95-4.71l1.66-1.12c1,1.49,1.71,3.12,2.12,4.85l2.41,0.76v5.46l-2.41,0.76
			c-0.37,1.54-0.97,3-1.8,4.35l1.17,2.24l-3.87,3.87l-2.24-1.17c-1.35,0.83-2.81,1.43-4.35,1.8L176.73,275z"/>
	</g>
	<g>
		<path class="st0" d="M161.54,266.35c-1-1.49-1.71-3.12-2.12-4.85l-2.41-0.76v-5.46l2.41-0.76c0.37-1.54,0.97-3,1.8-4.35
			l-1.17-2.24l3.87-3.87l2.24,1.17c1.35-0.83,2.81-1.43,4.35-1.8l0.76-2.41h5.46l0.76,2.41c1.54,0.37,3,0.97,4.35,1.8l2.24-1.17
			l3.35,3.35l-1.41,1.41l-2.31-2.31l-1.98,1.03l-0.49-0.33c-1.43-0.96-3.01-1.62-4.71-1.95l-0.58-0.11l-0.67-2.14h-2.54l-0.67,2.14
			l-0.58,0.11c-1.7,0.33-3.28,0.99-4.71,1.95l-0.49,0.33l-1.98-1.03l-1.79,1.79l1.03,1.98l-0.33,0.49
			c-0.96,1.43-1.62,3.01-1.95,4.71l-0.11,0.58l-2.14,0.67v2.54l2.14,0.67l0.11,0.58c0.33,1.7,0.99,3.28,1.95,4.71L161.54,266.35z"/>
	</g>
	<g>
		<path class="st0" d="M174,267c-4.96,0-9-4.04-9-9c0-4.96,4.04-9,9-9c4.96,0,9,4.04,9,9C183,262.96,178.96,267,174,267z M174,251
			c-3.86,0-7,3.14-7,7s3.14,7,7,7c3.86,0,7-3.14,7-7S177.86,251,174,251z"/>
	</g>
	<g>
		<path class="st0" d="M168,275h-36.49c-1.39,0-2.51-1.13-2.51-2.51v-0.17c0-0.35,0.07-0.68,0.21-1l24.48-56.8
			c0.4-0.92,1.3-1.52,2.31-1.52c1.01,0,1.92,0.6,2.32,1.53l11.05,26.08l-1.84,0.78l-11.05-26.08c-0.16-0.38-0.78-0.38-0.95,0
			l-24.48,56.8c-0.03,0.07-0.04,0.13-0.04,0.2v0.17c0,0.28,0.23,0.51,0.51,0.51H168V275z"/>
	</g>
	<g>
		<rect x="134" y="263" class="st0" width="24" height="2"/>
	</g>
	<g>
		<rect x="138" y="253" class="st0" width="18" height="2"/>
	</g>
	<g>
		<rect x="142" y="243" class="st0" width="19" height="2"/>
	</g>
	<g>
		<rect x="146" y="233" class="st0" width="20" height="2"/>
	</g>
	<g>
		<rect x="151" y="223" class="st0" width="10" height="2"/>
	</g>
</g>
<g>
	<g>
		<path class="st0" d="M243,227h-18v-14h18V227z M227,225h14v-10h-14V225z"/>
	</g>
	<g>
		<rect x="229" y="226" class="st0" width="2" height="4"/>
	</g>
	<g>
		<rect x="237" y="226" class="st0" width="2" height="4"/>
	</g>
	<g>
		<rect x="227" y="229" class="st0" width="14" height="2"/>
	</g>
	<g>
		<path class="st0" d="M265,227h-18v-14h18V227z M249,225h14v-10h-14V225z"/>
	</g>
	<g>
		<rect x="251" y="226" class="st0" width="2" height="4"/>
	</g>
	<g>
		<rect x="259" y="226" class="st0" width="2" height="4"/>
	</g>
	<g>
		<rect x="249" y="229" class="st0" width="14" height="2"/>
	</g>
	<g>
		<path class="st0" d="M287,227h-18v-14h18V227z M271,225h14v-10h-14V225z"/>
	</g>
	<g>
		<rect x="273" y="226" class="st0" width="2" height="4"/>
	</g>
	<g>
		<rect x="281" y="226" class="st0" width="2" height="4"/>
	</g>
	<g>
		<rect x="271" y="229" class="st0" width="14" height="2"/>
	</g>
	<g>
		<polygon class="st0" points="279,239 233,239 233,233 235,233 235,237 277,237 277,233 279,233 		"/>
	</g>
	<g>
		<rect x="255" y="233" class="st0" width="2" height="11"/>
	</g>
	<g>
		<path class="st0" d="M277,275h-42v-29h42V275z M237,273h38v-25h-38V273z"/>
	</g>
	<g>
		<path class="st0" d="M242,270c-1.65,0-3-1.35-3-3s1.35-3,3-3c1.65,0,3,1.35,3,3S243.65,270,242,270z M242,266c-0.55,0-1,0.45-1,1
			s0.45,1,1,1c0.55,0,1-0.45,1-1S242.55,266,242,266z"/>
	</g>
	<g>
		<path class="st0" d="M250,261c-1.65,0-3-1.35-3-3s1.35-3,3-3c1.65,0,3,1.35,3,3S251.65,261,250,261z M250,257c-0.55,0-1,0.45-1,1
			s0.45,1,1,1c0.55,0,1-0.45,1-1S250.55,257,250,257z"/>
	</g>
	<g>
		<path class="st0" d="M270,256c-1.65,0-3-1.35-3-3s1.35-3,3-3s3,1.35,3,3S271.65,256,270,256z M270,252c-0.55,0-1,0.45-1,1
			s0.45,1,1,1c0.55,0,1-0.45,1-1S270.55,252,270,252z"/>
	</g>
	<g>
		<path class="st0" d="M262,267c-1.65,0-3-1.35-3-3s1.35-3,3-3s3,1.35,3,3S263.65,267,262,267z M262,263c-0.55,0-1,0.45-1,1
			s0.45,1,1,1c0.55,0,1-0.45,1-1S262.55,263,262,263z"/>
	</g>
	<g>
		
			<rect x="260.9" y="257.5" transform="matrix(0.5881 -0.8088 0.8088 0.5881 -99.5031 321.6325)" class="st0" width="10.2" height="2"/>
	</g>
	<g>
		
			<rect x="255" y="256.53" transform="matrix(0.4472 -0.8944 0.8944 0.4472 -91.9322 373.2506)" class="st0" width="2" height="8.94"/>
	</g>
	<g>
		
			<rect x="241.48" y="261.5" transform="matrix(0.6644 -0.7474 0.7474 0.6644 -113.6285 271.9642)" class="st0" width="9.03" height="2"/>
	</g>
	<g>
		<rect x="239" y="250" class="st0" width="10" height="2"/>
	</g>
	<g>
		<rect x="251" y="250" class="st0" width="2" height="2"/>
	</g>
	<g>
		<rect x="259" y="269" class="st0" width="10" height="2"/>
	</g>
	<g>
		<rect x="271" y="269" class="st0" width="2" height="2"/>
	</g>
</g>
<g>
	<g>
		<rect x="340" y="268" class="st0" width="2" height="6"/>
	</g>
	<g>
		<rect x="362" y="268" class="st0" width="2" height="6"/>
	</g>
	<g>
		<rect x="336" y="273" class="st0" width="32" height="2"/>
	</g>
	<g>
		<path class="st0" d="M378,269h-52c-2.76,0-5-2.24-5-5v-3h62v3C383,266.76,380.76,269,378,269z M323,263v1c0,1.65,1.35,3,3,3h52
			c1.65,0,3-1.35,3-3v-1H323z"/>
	</g>
	<g>
		<path class="st0" d="M383,259h-2v-32c0-1.65-1.35-3-3-3h-11v-2h11c2.76,0,5,2.24,5,5V259z"/>
	</g>
	<g>
		<path class="st0" d="M323,259h-2v-32c0-2.76,2.24-5,5-5h15v2h-15c-1.65,0-3,1.35-3,3V259z"/>
	</g>
	<g>
		<path class="st0" d="M365,233h-8v-14h8V233z M359,231h4v-10h-4V231z"/>
	</g>
	<g>
		<rect x="358" y="223" class="st0" width="6" height="2"/>
	</g>
	<g>
		<rect x="358" y="227" class="st0" width="6" height="2"/>
	</g>
	<g>
		<rect x="360" y="214" class="st0" width="2" height="6"/>
	</g>
	<g>
		<rect x="356" y="213" class="st0" width="10" height="2"/>
	</g>
	<g>
		<rect x="360" y="232" class="st0" width="2" height="6"/>
	</g>
	<g>
		<rect x="356" y="237" class="st0" width="10" height="2"/>
	</g>
	<g>
		<path class="st0" d="M351,237h-8v-14h8V237z M345,235h4v-10h-4V235z"/>
	</g>
	<g>
		<rect x="344" y="227" class="st0" width="6" height="2"/>
	</g>
	<g>
		<rect x="344" y="231" class="st0" width="6" height="2"/>
	</g>
	<g>
		<rect x="346" y="218" class="st0" width="2" height="6"/>
	</g>
	<g>
		<rect x="342" y="217" class="st0" width="10" height="2"/>
	</g>
	<g>
		<rect x="346" y="236" class="st0" width="2" height="6"/>
	</g>
	<g>
		<rect x="342" y="241" class="st0" width="10" height="2"/>
	</g>
	<g>
		<rect x="333" y="234" class="st0" width="2" height="6"/>
	</g>
	<g>
		<rect x="329" y="233" class="st0" width="10" height="2"/>
	</g>
	<g>
		<rect x="333" y="252" class="st0" width="2" height="6"/>
	</g>
	<g>
		<rect x="329" y="257" class="st0" width="10" height="2"/>
	</g>
	<g>
		<path class="st0" d="M338,253h-8v-14h8V253z M332,251h4v-10h-4V251z"/>
	</g>
	<g>
		<rect x="331" y="245" class="st0" width="6" height="2"/>
	</g>
	<g>
		<rect x="371" y="231" class="st0" width="2" height="6"/>
	</g>
	<g>
		<rect x="367" y="230" class="st0" width="10" height="2"/>
	</g>
	<g>
		<rect x="371" y="249" class="st0" width="2" height="6"/>
	</g>
	<g>
		<rect x="367" y="254" class="st0" width="10" height="2"/>
	</g>
	<g>
		<path class="st0" d="M376,250h-8v-14h8V250z M370,248h4v-10h-4V248z"/>
	</g>
	<g>
		<rect x="369" y="242" class="st0" width="6" height="2"/>
	</g>
</g>
<g>
	<g>
		<path class="st0" d="M445,249h-24v-1c0-1.05,0.07-2.1,0.21-3.13l1.98,0.27c-0.08,0.62-0.14,1.24-0.17,1.87H443v-19.98
			c-3.35,0.16-6.61,1.11-9.5,2.79l-1-1.73c3.48-2.01,7.46-3.08,11.5-3.08h1V249z"/>
	</g>
	<g>
		<path class="st0" d="M439,243h-22v-16h6v14h10v-10h6V243z M435,241h2v-8h-2V241z M419,241h2v-12h-2V241z"/>
	</g>
	<g>
		<polygon class="st0" points="431,242 429,242 429,225 427,225 427,242 425,242 425,223 431,223 		"/>
	</g>
	<g>
		<rect x="447" y="252" class="st0" width="2" height="19"/>
	</g>
	<g>
		<polygon class="st0" points="475,263 473,263 473,228 474.92,228 469,220.6 468.18,221.62 466.62,220.38 469,217.4 479.08,230 
			475,230 		"/>
	</g>
	<g>
		<polygon class="st0" points="465,253 463,253 463,224 464.92,224 459,216.6 453.08,224 455,224 455,253 453,253 453,226 
			448.92,226 459,213.4 469.08,226 465,226 		"/>
	</g>
	<g>
		<path class="st0" d="M448,275c-12.68,0-23-10.32-23-23v-1h22v-22h1c1.02,0,2.07,0.07,3.13,0.22l-0.27,1.98
			c-0.63-0.09-1.25-0.14-1.87-0.17V253h-21.98c0.52,11.12,9.73,20,20.98,20c11.58,0,21-9.42,21-21c0-3.72-0.99-7.38-2.86-10.58
			l1.73-1.01c2.05,3.51,3.14,7.52,3.14,11.59C471,264.68,460.68,275,448,275z"/>
	</g>
	<g>
		<rect x="458" y="251" class="st0" width="2" height="2"/>
	</g>
	<g>
		<rect x="458" y="255" class="st0" width="2" height="2"/>
	</g>
	<g>
		<rect x="458" y="259" class="st0" width="2" height="2"/>
	</g>
	<g>
		<rect x="468" y="265" class="st0" width="2" height="2"/>
	</g>
	<g>
		<rect x="468" y="269" class="st0" width="2" height="2"/>
	</g>
	<g>
		<rect x="468" y="273" class="st0" width="2" height="2"/>
	</g>
	<g>
		<rect x="443" y="255" class="st0" width="2" height="2"/>
	</g>
	<g>
		<rect x="430" y="255" class="st0" width="11" height="2"/>
	</g>
</g>
<g>
	<g>
		<path class="st0" d="M553,229h-32v-11h9.3c0.87-2.94,3.57-5,6.7-5s5.84,2.06,6.7,5h9.3V229z M523,227h28v-7h-8.94l-0.14-0.83
			c-0.41-2.41-2.48-4.17-4.92-4.17c-2.45,0-4.52,1.75-4.92,4.17l-0.14,0.83H523V227z"/>
	</g>
	<g>
		<polygon class="st0" points="561,275 513,275 513,220 519,220 519,222 515,222 515,273 559,273 559,222 555,222 555,220 561,220 
					"/>
	</g>
	<g>
		<polygon class="st0" points="557,271 517,271 517,224 519,224 519,269 555,269 555,224 557,224 		"/>
	</g>
	<g>
		<path class="st0" d="M569,275c-3.31,0-6-2.69-6-6v-48.36l6-7.2l6,7.2V269C575,272.31,572.31,275,569,275z M565,221.36V269
			c0,2.21,1.79,4,4,4s4-1.79,4-4v-47.64l-4-4.8L565,221.36z"/>
	</g>
	<g>
		<rect x="564" y="220" class="st0" width="10" height="2"/>
	</g>
	<g>
		<rect x="564" y="267" class="st0" width="10" height="2"/>
	</g>
	<g>
		<rect x="564" y="263" class="st0" width="10" height="2"/>
	</g>
	<g>
		<rect x="568" y="221" class="st0" width="2" height="43"/>
	</g>
	<g>
		<path class="st0" d="M524,248c-1.65,0-3-1.35-3-3s1.35-3,3-3s3,1.35,3,3S525.65,248,524,248z M524,244c-0.55,0-1,0.45-1,1
			s0.45,1,1,1c0.55,0,1-0.45,1-1S524.55,244,524,244z"/>
	</g>
	<g>
		<path class="st0" d="M532,237c-1.65,0-3-1.35-3-3s1.35-3,3-3s3,1.35,3,3S533.65,237,532,237z M532,233c-0.55,0-1,0.45-1,1
			s0.45,1,1,1c0.55,0,1-0.45,1-1S532.55,233,532,233z"/>
	</g>
	<g>
		<path class="st0" d="M550,240c-1.65,0-3-1.35-3-3s1.35-3,3-3s3,1.35,3,3S551.65,240,550,240z M550,236c-0.55,0-1,0.45-1,1
			s0.45,1,1,1c0.55,0,1-0.45,1-1S550.55,236,550,236z"/>
	</g>
	<g>
		<path class="st0" d="M540,246c-1.65,0-3-1.35-3-3s1.35-3,3-3s3,1.35,3,3S541.65,246,540,246z M540,242c-0.55,0-1,0.45-1,1
			s0.45,1,1,1c0.55,0,1-0.45,1-1S540.55,242,540,242z"/>
	</g>
	<g>
		
			<rect x="541.06" y="238.8" transform="matrix(0.8574 -0.5147 0.5147 0.8574 -45.6486 314.8513)" class="st0" width="8.55" height="2"/>
	</g>
	<g>
		
			<rect x="535" y="233.98" transform="matrix(0.7474 -0.6644 0.6644 0.7474 -23.0622 416.3419)" class="st0" width="2" height="9.03"/>
	</g>
	<g>
		
			<rect x="522.9" y="238.5" transform="matrix(0.5881 -0.8088 0.8088 0.5881 23.793 525.7159)" class="st0" width="10.2" height="2"/>
	</g>
	<g>
		<rect x="538" y="251" class="st0" width="15" height="2"/>
	</g>
	<g>
		<rect x="521" y="251" class="st0" width="15" height="2"/>
	</g>
	<g>
		<rect x="538" y="255" class="st0" width="15" height="2"/>
	</g>
	<g>
		<rect x="525" y="255" class="st0" width="11" height="2"/>
	</g>
	<g>
		<rect x="521" y="255" class="st0" width="2" height="2"/>
	</g>
	<g>
		<rect x="538" y="259" class="st0" width="15" height="2"/>
	</g>
	<g>
		<rect x="521" y="259" class="st0" width="15" height="2"/>
	</g>
	<g>
		<rect x="551" y="263" class="st0" width="2" height="2"/>
	</g>
	<g>
		<rect x="538" y="263" class="st0" width="11" height="2"/>
	</g>
	<g>
		<rect x="521" y="263" class="st0" width="15" height="2"/>
	</g>
</g>
<g>
	<g>
		<path class="st0" d="M62,371c-15.99,0-29-13.01-29-29s13.01-29,29-29c6.58,0,12.79,2.15,17.94,6.21l-1.24,1.57
			C73.9,317,68.13,315,62,315c-14.89,0-27,12.11-27,27s12.11,27,27,27s27-12.11,27-27c0-5.54-1.67-10.87-4.82-15.4l1.64-1.14
			C89.21,330.33,91,336.05,91,342C91,357.99,77.99,371,62,371z"/>
	</g>
	<g>
		<path class="st0" d="M44,346c-2.21,0-4-1.79-4-4s1.79-4,4-4s4,1.79,4,4S46.21,346,44,346z M44,340c-1.1,0-2,0.9-2,2s0.9,2,2,2
			s2-0.9,2-2S45.1,340,44,340z"/>
	</g>
	<g>
		<path class="st0" d="M55,354c-2.21,0-4-1.79-4-4s1.79-4,4-4s4,1.79,4,4S57.21,354,55,354z M55,348c-1.1,0-2,0.9-2,2s0.9,2,2,2
			s2-0.9,2-2S56.1,348,55,348z"/>
	</g>
	<g>
		<path class="st0" d="M65,337c-2.21,0-4-1.79-4-4s1.79-4,4-4s4,1.79,4,4S67.21,337,65,337z M65,331c-1.1,0-2,0.9-2,2s0.9,2,2,2
			s2-0.9,2-2S66.1,331,65,331z"/>
	</g>
	<g>
		<path class="st0" d="M78,342c-2.21,0-4-1.79-4-4s1.79-4,4-4s4,1.79,4,4S80.21,342,78,342z M78,336c-1.1,0-2,0.9-2,2s0.9,2,2,2
			s2-0.9,2-2S79.1,336,78,336z"/>
	</g>
	<g>
		
			<rect x="72.06" y="322.5" transform="matrix(0.5098 -0.8603 0.8603 0.5098 -235.8596 233.0842)" class="st0" width="29.06" height="2"/>
	</g>
	<g>
		
			<rect x="70.7" y="331.61" transform="matrix(0.3589 -0.9334 0.9334 0.3589 -267.252 282.0573)" class="st0" width="2" height="7.93"/>
	</g>
	<g>
		
			<rect x="53.62" y="340.5" transform="matrix(0.5067 -0.8621 0.8621 0.5067 -264.8203 220.1987)" class="st0" width="12.76" height="2"/>
	</g>
	<g>
		
			<rect x="48.5" y="342.6" transform="matrix(0.5882 -0.8087 0.8087 0.5882 -259.4372 182.525)" class="st0" width="2" height="6.8"/>
	</g>
	<g>
		
			<rect x="33.82" y="345.89" transform="matrix(0.7474 -0.6644 0.6644 0.7474 -220.7375 113.201)" class="st0" width="9.37" height="2"/>
	</g>
	<g>
		<polygon class="st0" points="95,323 93,323 93,312.5 82.38,316.92 81.62,315.08 95,309.5 		"/>
	</g>
	<g>
		<rect x="40" y="352" class="st0" width="2" height="8"/>
	</g>
	<g>
		<rect x="40" y="348" class="st0" width="2" height="2"/>
	</g>
	<g>
		<rect x="46" y="352" class="st0" width="2" height="14"/>
	</g>
	<g>
		<rect x="46" y="348" class="st0" width="2" height="2"/>
	</g>
	<g>
		<rect x="52" y="360" class="st0" width="2" height="9"/>
	</g>
	<g>
		<rect x="52" y="356" class="st0" width="2" height="2"/>
	</g>
	<g>
		<rect x="58" y="358" class="st0" width="2" height="12"/>
	</g>
	<g>
		<rect x="58" y="354" class="st0" width="2" height="2"/>
	</g>
	<g>
		<rect x="64" y="344" class="st0" width="2" height="26"/>
	</g>
	<g>
		<rect x="64" y="340" class="st0" width="2" height="2"/>
	</g>
	<g>
		<rect x="70" y="343" class="st0" width="2" height="26"/>
	</g>
	<g>
		<rect x="70" y="339" class="st0" width="2" height="2"/>
	</g>
	<g>
		<rect x="76" y="348" class="st0" width="2" height="18"/>
	</g>
	<g>
		<rect x="76" y="344" class="st0" width="2" height="2"/>
	</g>
	<g>
		<rect x="82" y="346" class="st0" width="2" height="14"/>
	</g>
	<g>
		<rect x="82" y="342" class="st0" width="2" height="2"/>
	</g>
	<g>
		<rect x="74" y="324" class="st0" width="2" height="2"/>
	</g>
	<g>
		<rect x="74" y="328" class="st0" width="2" height="2"/>
	</g>
	<g>
		<rect x="76" y="326" class="st0" width="2" height="2"/>
	</g>
	<g>
		<rect x="72" y="326" class="st0" width="2" height="2"/>
	</g>
	<g>
		<rect x="56" y="319" class="st0" width="2" height="2"/>
	</g>
	<g>
		<rect x="56" y="323" class="st0" width="2" height="2"/>
	</g>
	<g>
		<rect x="58" y="321" class="st0" width="2" height="2"/>
	</g>
	<g>
		<rect x="54" y="321" class="st0" width="2" height="2"/>
	</g>
	<g>
		<rect x="48" y="330" class="st0" width="2" height="2"/>
	</g>
	<g>
		<rect x="48" y="334" class="st0" width="2" height="2"/>
	</g>
	<g>
		<rect x="50" y="332" class="st0" width="2" height="2"/>
	</g>
	<g>
		<rect x="46" y="332" class="st0" width="2" height="2"/>
	</g>
</g>
<g>
	<g>
		<path class="st0" d="M171,343h-22c-1.65,0-3-1.35-3-3v-4c0-1.65,1.35-3,3-3h22c1.65,0,3,1.35,3,3v4C174,341.65,172.65,343,171,343
			z M149,335c-0.55,0-1,0.45-1,1v4c0,0.55,0.45,1,1,1h22c0.55,0,1-0.45,1-1v-4c0-0.55-0.45-1-1-1H149z"/>
	</g>
	<g>
		<rect x="169" y="330" class="st0" width="2" height="4"/>
	</g>
	<g>
		<rect x="149" y="330" class="st0" width="2" height="4"/>
	</g>
	<g>
		<path class="st0" d="M171,331h-22c-1.65,0-3-1.35-3-3v-4c0-1.65,1.35-3,3-3h22c1.65,0,3,1.35,3,3v4C174,329.65,172.65,331,171,331
			z M149,323c-0.55,0-1,0.45-1,1v4c0,0.55,0.45,1,1,1h22c0.55,0,1-0.45,1-1v-4c0-0.55-0.45-1-1-1H149z"/>
	</g>
	<g>
		<path class="st0" d="M171,319h-22c-1.65,0-3-1.35-3-3v-4c0-1.65,1.35-3,3-3h22c1.65,0,3,1.35,3,3v4C174,317.65,172.65,319,171,319
			z M149,311c-0.55,0-1,0.45-1,1v4c0,0.55,0.45,1,1,1h22c0.55,0,1-0.45,1-1v-4c0-0.55-0.45-1-1-1H149z"/>
	</g>
	<g>
		<rect x="169" y="318" class="st0" width="2" height="4"/>
	</g>
	<g>
		<rect x="149" y="318" class="st0" width="2" height="4"/>
	</g>
	<g>
		<rect x="150" y="313" class="st0" width="2" height="2"/>
	</g>
	<g>
		<rect x="154" y="313" class="st0" width="2" height="2"/>
	</g>
	<g>
		<rect x="168" y="325" class="st0" width="2" height="2"/>
	</g>
	<g>
		<rect x="164" y="325" class="st0" width="2" height="2"/>
	</g>
	<g>
		<rect x="150" y="337" class="st0" width="2" height="2"/>
	</g>
	<g>
		<rect x="154" y="337" class="st0" width="2" height="2"/>
	</g>
	<g>
		<path class="st0" d="M190,371h-16v-18h16V371z M176,369h12v-14h-12V369z"/>
	</g>
	<g>
		<path class="st0" d="M146,371h-16v-18h16V371z M132,369h12v-14h-12V369z"/>
	</g>
	<g>
		<path class="st0" d="M168,371h-16v-18h16V371z M154,369h12v-14h-12V369z"/>
	</g>
	<g>
		<polygon class="st0" points="183,351 181,351 181,349 138,349 138,351 136,351 136,347 183,347 		"/>
	</g>
	<g>
		<rect x="159" y="345" class="st0" width="2" height="6"/>
	</g>
	<g>
		<rect x="178" y="357" class="st0" width="8" height="2"/>
	</g>
	<g>
		<rect x="178" y="361" class="st0" width="8" height="2"/>
	</g>
	<g>
		<rect x="178" y="365" class="st0" width="8" height="2"/>
	</g>
	<g>
		<rect x="156" y="357" class="st0" width="8" height="2"/>
	</g>
	<g>
		<rect x="156" y="361" class="st0" width="8" height="2"/>
	</g>
	<g>
		<rect x="156" y="365" class="st0" width="8" height="2"/>
	</g>
	<g>
		<rect x="134" y="357" class="st0" width="8" height="2"/>
	</g>
	<g>
		<rect x="134" y="361" class="st0" width="8" height="2"/>
	</g>
	<g>
		<rect x="134" y="365" class="st0" width="8" height="2"/>
	</g>
	<g>
		<rect x="176" y="313" class="st0" width="2" height="2"/>
	</g>
	<g>
		<rect x="180" y="313" class="st0" width="2" height="2"/>
	</g>
	<g>
		<rect x="180" y="317" class="st0" width="2" height="2"/>
	</g>
	<g>
		<rect x="176" y="325" class="st0" width="2" height="2"/>
	</g>
	<g>
		<rect x="180" y="325" class="st0" width="2" height="2"/>
	</g>
	<g>
		<rect x="180" y="321" class="st0" width="2" height="2"/>
	</g>
	<g>
		<rect x="142" y="337" class="st0" width="2" height="2"/>
	</g>
	<g>
		<rect x="138" y="337" class="st0" width="2" height="2"/>
	</g>
	<g>
		<rect x="138" y="333" class="st0" width="2" height="2"/>
	</g>
	<g>
		<rect x="142" y="325" class="st0" width="2" height="2"/>
	</g>
	<g>
		<rect x="138" y="325" class="st0" width="2" height="2"/>
	</g>
	<g>
		<rect x="138" y="329" class="st0" width="2" height="2"/>
	</g>
</g>
<g>
	<g>
		<path class="st0" d="M256,343c-7.72,0-14-6.28-14-14v-20h28v20C270,336.72,263.72,343,256,343z M244,311v18c0,6.62,5.38,12,12,12
			c6.62,0,12-5.38,12-12v-18H244z"/>
	</g>
	<g>
		<rect x="258" y="345" class="st0" width="2" height="21"/>
	</g>
	<g>
		<rect x="252" y="345" class="st0" width="2" height="21"/>
	</g>
	<g>
		<path class="st0" d="M269,371h-26v-1c0-2.76,2.24-5,5-5h16c2.76,0,5,2.24,5,5V371z M245.17,369h21.66c-0.41-1.16-1.53-2-2.83-2
			h-16C246.7,367,245.58,367.84,245.17,369z"/>
	</g>
	<g>
		<path class="st0" d="M283,348c-2.21,0-4-1.79-4-4s1.79-4,4-4c2.21,0,4,1.79,4,4S285.21,348,283,348z M283,342c-1.1,0-2,0.9-2,2
			s0.9,2,2,2c1.1,0,2-0.9,2-2S284.1,342,283,342z"/>
	</g>
	<g>
		<path class="st0" d="M268,362c-2.21,0-4-1.79-4-4s1.79-4,4-4c2.21,0,4,1.79,4,4S270.21,362,268,362z M268,356c-1.1,0-2,0.9-2,2
			s0.9,2,2,2c1.1,0,2-0.9,2-2S269.1,356,268,356z"/>
	</g>
	<g>
		<path class="st0" d="M244,353c-2.21,0-4-1.79-4-4s1.79-4,4-4s4,1.79,4,4S246.21,353,244,353z M244,347c-1.1,0-2,0.9-2,2s0.9,2,2,2
			c1.1,0,2-0.9,2-2S245.1,347,244,347z"/>
	</g>
	<g>
		<path class="st0" d="M229,367c-2.21,0-4-1.79-4-4s1.79-4,4-4s4,1.79,4,4S231.21,367,229,367z M229,361c-1.1,0-2,0.9-2,2s0.9,2,2,2
			c1.1,0,2-0.9,2-2S230.1,361,229,361z"/>
	</g>
	<g>
		
			<rect x="268.24" y="350" transform="matrix(0.7311 -0.6823 0.6823 0.7311 -165.3957 282.3512)" class="st0" width="14.52" height="2"/>
	</g>
	<g>
		
			<rect x="229.25" y="355.03" transform="matrix(0.7311 -0.6823 0.6823 0.7311 -179.3227 257.0894)" class="st0" width="14.44" height="2"/>
	</g>
	<g>
		
			<rect x="247.4" y="348.94" transform="matrix(0.3511 -0.9363 0.9363 0.3511 -167.1411 460.1198)" class="st0" width="2" height="3.41"/>
	</g>
	<g>
		
			<rect x="262.6" y="354.64" transform="matrix(0.351 -0.9364 0.9364 0.351 -162.5975 478.1102)" class="st0" width="2" height="3.41"/>
	</g>
	<g>
		<rect x="253" y="361" class="st0" width="6" height="2"/>
	</g>
	<g>
		<path class="st0" d="M272.99,339c-0.16,0-0.32-0.01-0.48-0.02c-2.53-0.24-4.51-2.5-4.51-5.15c0-2.11,1.23-4.04,3.14-4.93
			l8.21-3.83c2.22-1.04,3.65-3.29,3.65-5.74c0-3.49-2.84-6.33-6.33-6.33H273c-0.92,0-1.77,0.41-2.35,1.13
			c-0.58,0.73-0.78,1.65-0.57,2.59c0.25,1.07,1.13,1.95,2.2,2.2c0.94,0.21,1.86,0.01,2.59-0.57c0.72-0.57,1.13-1.43,1.13-2.35h2
			c0,1.53-0.69,2.96-1.88,3.91c-1.2,0.95-2.75,1.31-4.28,0.96c-1.83-0.42-3.28-1.87-3.7-3.7c-0.35-1.52,0-3.08,0.96-4.28
			c0.95-1.2,2.38-1.88,3.91-1.88h3.67c4.59,0,8.33,3.74,8.33,8.33c0,3.22-1.89,6.19-4.81,7.55l-8.21,3.83
			c-1.21,0.56-1.99,1.79-1.99,3.12c0,1.63,1.19,3.01,2.7,3.16c0.86,0.08,1.68-0.19,2.32-0.77c0.62-0.57,0.98-1.38,0.98-2.22
			c0-0.73-0.27-1.44-0.75-1.98l1.5-1.32c0.81,0.91,1.25,2.09,1.25,3.31c0,1.41-0.6,2.75-1.64,3.7
			C275.44,338.54,274.23,339,272.99,339z"/>
	</g>
	<g>
		<path class="st0" d="M239.01,339c-1.24,0-2.45-0.46-3.37-1.3c-1.04-0.95-1.64-2.29-1.64-3.7c0-1.22,0.44-2.39,1.25-3.31l1.5,1.32
			c-0.48,0.55-0.75,1.25-0.75,1.98c0,0.84,0.36,1.65,0.98,2.22c0.63,0.58,1.45,0.84,2.32,0.77c1.52-0.14,2.7-1.53,2.7-3.16
			c0-1.33-0.78-2.56-1.99-3.12l-8.21-3.83c-2.92-1.36-4.81-4.33-4.81-7.55c0-4.59,3.74-8.33,8.33-8.33H239
			c1.53,0,2.96,0.69,3.91,1.88c0.96,1.2,1.3,2.76,0.96,4.28c-0.42,1.83-1.87,3.28-3.7,3.7c-1.53,0.35-3.08,0-4.28-0.96
			c-1.2-0.96-1.88-2.38-1.88-3.91h2c0,0.92,0.41,1.77,1.13,2.35c0.73,0.58,1.65,0.79,2.59,0.57c1.07-0.25,1.95-1.13,2.2-2.2
			c0.21-0.94,0.01-1.86-0.57-2.59c-0.57-0.72-1.43-1.13-2.35-1.13h-3.67c-3.49,0-6.33,2.84-6.33,6.33c0,2.45,1.43,4.7,3.65,5.74
			l8.21,3.83c1.91,0.89,3.14,2.83,3.14,4.93c0,2.65-1.98,4.91-4.51,5.15C239.33,338.99,239.17,339,239.01,339z"/>
	</g>
	<g>
		<path class="st0" d="M256,334c-5.51,0-10-4.49-10-10s4.49-10,10-10s10,4.49,10,10S261.51,334,256,334z M256,316
			c-4.41,0-8,3.59-8,8s3.59,8,8,8s8-3.59,8-8S260.41,316,256,316z"/>
	</g>
</g>
<g>
	<g>
		<path class="st0" d="M352,350c-5.51,0-10-4.49-10-10s4.49-10,10-10s10,4.49,10,10S357.51,350,352,350z M352,332
			c-4.41,0-8,3.59-8,8s3.59,8,8,8s8-3.59,8-8S356.41,332,352,332z"/>
	</g>
	<g>
		<path class="st0" d="M359.68,317.25c-3.68-1.24-7.7-1.57-11.52-0.95l-0.32-1.97c4.14-0.67,8.49-0.32,12.48,1.03L359.68,317.25z"/>
	</g>
	<g>
		<path class="st0" d="M330.46,354.56c-2.92-4.31-4.46-9.34-4.46-14.56c0-6.58,2.46-12.86,6.94-17.68l1.47,1.36
			c-4.13,4.45-6.4,10.25-6.4,16.32c0,4.82,1.42,9.47,4.11,13.44L330.46,354.56z"/>
	</g>
	<g>
		<path class="st0" d="M352,366c-2.11,0-4.21-0.25-6.24-0.75l0.48-1.94c3.43,0.84,7.11,0.92,10.56,0.21l0.4,1.96
			C355.5,365.83,353.75,366,352,366z"/>
	</g>
	<g>
		<path class="st0" d="M375.35,351.44l-1.79-0.88c1.62-3.3,2.44-6.85,2.44-10.56s-0.82-7.26-2.44-10.56l1.79-0.88
			c1.76,3.58,2.65,7.43,2.65,11.44S377.11,347.86,375.35,351.44z"/>
	</g>
	<g>
		<rect x="357" y="325" class="st0" width="26" height="2"/>
	</g>
	<g>
		<path class="st0" d="M382,327c-2.99,0-4.36-3.71-5.81-7.65c-1.52-4.11-3.09-8.35-6.19-8.35c-3.1,0-4.67,4.25-6.19,8.35
			c-1.45,3.93-2.83,7.65-5.81,7.65v-2c1.59,0,2.79-3.22,3.94-6.34c1.67-4.53,3.57-9.66,8.06-9.66s6.39,5.13,8.06,9.66
			c1.15,3.12,2.34,6.34,3.94,6.34V327z"/>
	</g>
	<g>
		<rect x="369" y="321" class="st0" width="2" height="2"/>
	</g>
	<g>
		<rect x="369" y="317" class="st0" width="2" height="2"/>
	</g>
	<g>
		<rect x="357" y="369" class="st0" width="26" height="2"/>
	</g>
	<g>
		<rect x="359" y="361" class="st0" width="2" height="9"/>
	</g>
	<g>
		<rect x="363" y="355" class="st0" width="2" height="15"/>
	</g>
	<g>
		<rect x="367" y="357" class="st0" width="2" height="13"/>
	</g>
	<g>
		<rect x="371" y="359" class="st0" width="2" height="11"/>
	</g>
	<g>
		<rect x="375" y="353" class="st0" width="2" height="17"/>
	</g>
	<g>
		<rect x="379" y="355" class="st0" width="2" height="15"/>
	</g>
	<g>
		<rect x="321" y="369" class="st0" width="26" height="2"/>
	</g>
	<g>
		<polygon class="st0" points="323.89,370.45 322.11,369.55 326.61,360.54 329.61,362.54 332.73,356.31 335.92,359.5 340.34,353.98 
			345.94,369.66 344.06,370.34 339.66,358.02 336.08,362.5 333.27,359.69 330.39,365.46 327.39,363.46 		"/>
	</g>
	<g>
		<path class="st0" d="M324,327c-1.65,0-3-1.35-3-3s1.35-3,3-3s3,1.35,3,3S325.65,327,324,327z M324,323c-0.55,0-1,0.45-1,1
			s0.45,1,1,1c0.55,0,1-0.45,1-1S324.55,323,324,323z"/>
	</g>
	<g>
		<path class="st0" d="M344,315c-1.65,0-3-1.35-3-3s1.35-3,3-3s3,1.35,3,3S345.65,315,344,315z M344,311c-0.55,0-1,0.45-1,1
			s0.45,1,1,1c0.55,0,1-0.45,1-1S344.55,311,344,311z"/>
	</g>
	<g>
		<path class="st0" d="M337,322c-1.65,0-3-1.35-3-3s1.35-3,3-3s3,1.35,3,3S338.65,322,337,322z M337,318c-0.55,0-1,0.45-1,1
			s0.45,1,1,1c0.55,0,1-0.45,1-1S337.55,318,337,318z"/>
	</g>
	<g>
		<path class="st0" d="M329,319c-1.65,0-3-1.35-3-3s1.35-3,3-3s3,1.35,3,3S330.65,319,329,319z M329,315c-0.55,0-1,0.45-1,1
			s0.45,1,1,1c0.55,0,1-0.45,1-1S329.55,315,329,315z"/>
	</g>
	<g>
		
			<rect x="336.96" y="314.5" transform="matrix(0.7071 -0.7071 0.7071 0.7071 -123.362 333.1777)" class="st0" width="7.07" height="2"/>
	</g>
	<g>
		
			<rect x="332" y="315.36" transform="matrix(0.3511 -0.9363 0.9363 0.3511 -81.2086 517.8159)" class="st0" width="2" height="4.27"/>
	</g>
	<g>
		
			<rect x="323.67" y="319" transform="matrix(0.5303 -0.8478 0.8478 0.5303 -117.9484 427.088)" class="st0" width="5.66" height="2"/>
	</g>
	<g>
		<polygon class="st0" points="359.55,344.89 351.25,340.75 347.11,332.45 348.89,331.55 352.75,339.25 360.45,343.11 		"/>
	</g>
</g>
<g>
	<g>
		<path class="st0" d="M474,371h-52c-2.76,0-5-2.24-5-5v-5h18v2h-16v3c0,1.65,1.35,3,3,3h52c1.65,0,3-1.35,3-3v-3h-16v-2h18v5
			C479,368.76,476.76,371,474,371z"/>
	</g>
	<g>
		<path class="st0" d="M456,367h-16c-1.65,0-3-1.35-3-3v-3h22v3C459,365.65,457.65,367,456,367z M439,363v1c0,0.55,0.45,1,1,1h16
			c0.55,0,1-0.45,1-1v-1H439z"/>
	</g>
	<g>
		<rect x="423" y="365" class="st0" width="2" height="2"/>
	</g>
	<g>
		<rect x="427" y="365" class="st0" width="2" height="2"/>
	</g>
	<g>
		<rect x="431" y="365" class="st0" width="2" height="2"/>
	</g>
	<g>
		<path class="st0" d="M477,359h-2v-36c0-1.65-1.35-3-3-3h-3v-2h3c2.76,0,5,2.24,5,5V359z"/>
	</g>
	<g>
		<path class="st0" d="M421,359h-2v-36c0-2.76,2.24-5,5-5h3v2h-3c-1.65,0-3,1.35-3,3V359z"/>
	</g>
	<g>
		<path class="st0" d="M473,359h-2v-35h-2v-2h2c1.1,0,2,0.9,2,2V359z"/>
	</g>
	<g>
		<path class="st0" d="M425,359h-2v-35c0-1.1,0.9-2,2-2h2v2h-2V359z"/>
	</g>
	<g>
		<path class="st0" d="M467,336h-38v-27h38V336z M431,334h34v-23h-34V334z"/>
	</g>
	<g>
		<path class="st0" d="M469,359h-16v-18h16V359z M455,357h12v-14h-12V357z"/>
	</g>
	<g>
		<path class="st0" d="M430,358c-1.65,0-3-1.35-3-3s1.35-3,3-3s3,1.35,3,3S431.65,358,430,358z M430,354c-0.55,0-1,0.45-1,1
			s0.45,1,1,1c0.55,0,1-0.45,1-1S430.55,354,430,354z"/>
	</g>
	<g>
		<path class="st0" d="M443,356c-1.65,0-3-1.35-3-3s1.35-3,3-3s3,1.35,3,3S444.65,356,443,356z M443,352c-0.55,0-1,0.45-1,1
			s0.45,1,1,1c0.55,0,1-0.45,1-1S443.55,352,443,352z"/>
	</g>
	<g>
		<path class="st0" d="M434,348c-1.65,0-3-1.35-3-3s1.35-3,3-3s3,1.35,3,3S435.65,348,434,348z M434,344c-0.55,0-1,0.45-1,1
			s0.45,1,1,1c0.55,0,1-0.45,1-1S434.55,344,434,344z"/>
	</g>
	<g>
		<path class="st0" d="M448,344c-1.65,0-3-1.35-3-3s1.35-3,3-3s3,1.35,3,3S449.65,344,448,344z M448,340c-0.55,0-1,0.45-1,1
			s0.45,1,1,1c0.55,0,1-0.45,1-1S448.55,340,448,340z"/>
	</g>
	<g>
		
			<rect x="428.84" y="349" transform="matrix(0.3165 -0.9486 0.9486 0.3165 -36.7442 649.0032)" class="st0" width="6.32" height="2"/>
	</g>
	<g>
		
			<rect x="438" y="344.76" transform="matrix(0.7071 -0.7071 0.7071 0.7071 -118.2001 412.6396)" class="st0" width="2" height="8.49"/>
	</g>
	<g>
		
			<rect x="440.53" y="346" transform="matrix(0.4473 -0.8944 0.8944 0.4473 -64.3872 589.8142)" class="st0" width="8.94" height="2"/>
	</g>
	<g>
		<rect x="457" y="345" class="st0" width="8" height="2"/>
	</g>
	<g>
		<rect x="457" y="349" class="st0" width="8" height="2"/>
	</g>
	<g>
		<rect x="457" y="353" class="st0" width="8" height="2"/>
	</g>
	<g>
		<polygon class="st0" points="439,332 437,332 437,322 435,322 435,332 433,332 433,320 439,320 		"/>
	</g>
	<g>
		<polygon class="st0" points="447,332 445,332 445,316 443,316 443,332 441,332 441,314 447,314 		"/>
	</g>
	<g>
		<polygon class="st0" points="455,332 453,332 453,326 451,326 451,332 449,332 449,324 455,324 		"/>
	</g>
	<g>
		<polygon class="st0" points="463,332 461,332 461,320 459,320 459,332 457,332 457,318 463,318 		"/>
	</g>
</g>
<g>
	<g>
		<path class="st0" d="M570,371h-5v-38h5c2.76,0,5,2.24,5,5v28C575,368.76,572.76,371,570,371z M567,369h3c1.65,0,3-1.35,3-3v-28
			c0-1.65-1.35-3-3-3h-3V369z"/>
	</g>
	<g>
		<rect x="559" y="333" class="st0" width="4" height="2"/>
	</g>
	<g>
		<path class="st0" d="M563,371h-45c-2.76,0-5-2.24-5-5v-28c0-2.76,2.24-5,5-5h10v2h-10c-1.65,0-3,1.35-3,3v28c0,1.65,1.35,3,3,3h45
			V371z"/>
	</g>
	<g>
		<rect x="569" y="347" class="st0" width="2" height="10"/>
	</g>
	<g>
		<rect x="519" y="334" class="st0" width="2" height="36"/>
	</g>
	<g>
		<polygon class="st0" points="563,367 523,367 523,337 527,337 527,339 525,339 525,365 561,365 561,339 559,339 559,337 563,337 
					"/>
	</g>
	<g>
		<path class="st0" d="M543,362c-8.82,0-16-7.18-16-16s7.18-16,16-16c8.82,0,16,7.18,16,16S551.82,362,543,362z M543,332
			c-7.72,0-14,6.28-14,14s6.28,14,14,14c7.72,0,14-6.28,14-14S550.72,332,543,332z"/>
	</g>
	<g>
		<polygon class="st0" points="554.4,355.8 542,346.5 542,331 544,331 544,345.5 555.6,354.2 		"/>
	</g>
	<g>
		<path class="st0" d="M575,323h-22v-14h22V323z M555,321h18v-10h-18V321z"/>
	</g>
	<g>
		<rect x="557" y="313" class="st0" width="14" height="2"/>
	</g>
	<g>
		<rect x="569" y="317" class="st0" width="2" height="2"/>
	</g>
	<g>
		<rect x="557" y="317" class="st0" width="10" height="2"/>
	</g>
	<g>
		<polygon class="st0" points="552,330 550,330 550,324.59 553.29,321.29 554.71,322.71 552,325.41 		"/>
	</g>
	<g>
		<path class="st0" d="M535,323h-22v-14h22V323z M515,321h18v-10h-18V321z"/>
	</g>
	<g>
		<rect x="517" y="313" class="st0" width="14" height="2"/>
	</g>
	<g>
		<rect x="517" y="317" class="st0" width="10" height="2"/>
	</g>
	<g>
		<rect x="529" y="317" class="st0" width="2" height="2"/>
	</g>
	<g>
		<polygon class="st0" points="538,330 536,330 536,325.41 533.29,322.71 534.71,321.29 538,324.59 		"/>
	</g>
</g>
<g>
	<g>
		<rect x="51" y="460" class="st0" width="2" height="6"/>
	</g>
	<g>
		<rect x="69" y="460" class="st0" width="2" height="6"/>
	</g>
	<g>
		<rect x="47" y="465" class="st0" width="28" height="2"/>
	</g>
	<g>
		<path class="st0" d="M84,461H38c-2.76,0-5-2.24-5-5v-3h56v3C89,458.76,86.76,461,84,461z M35,455v1c0,1.65,1.35,3,3,3h46
			c1.65,0,3-1.35,3-3v-1H35z"/>
	</g>
	<g>
		<path class="st0" d="M35,451h-2v-29c0-2.76,2.24-5,5-5h29v2H38c-1.65,0-3,1.35-3,3V451z"/>
	</g>
	<g>
		<rect x="87" y="445" class="st0" width="2" height="6"/>
	</g>
	<g>
		<path class="st0" d="M92,443H72c-1.65,0-3-1.35-3-3v-5h26v5C95,441.65,93.65,443,92,443z M71,437v3c0,0.55,0.45,1,1,1h20
			c0.55,0,1-0.45,1-1v-3H71z"/>
	</g>
	<g>
		<rect x="73" y="421" class="st0" width="18" height="2"/>
	</g>
	<g>
		<rect x="75" y="416" class="st0" width="2" height="6"/>
	</g>
	<g>
		<rect x="79" y="414" class="st0" width="2" height="8"/>
	</g>
	<g>
		<rect x="83" y="412" class="st0" width="2" height="10"/>
	</g>
	<g>
		<rect x="87" y="414" class="st0" width="2" height="8"/>
	</g>
	<g>
		<path class="st0" d="M95,433h-2v-25c0-0.55-0.45-1-1-1H72c-0.55,0-1,0.45-1,1v25h-2v-25c0-1.65,1.35-3,3-3h20c1.65,0,3,1.35,3,3
			V433z"/>
	</g>
	<g>
		<rect x="73" y="425" class="st0" width="2" height="2"/>
	</g>
	<g>
		<rect x="89" y="425" class="st0" width="2" height="2"/>
	</g>
	<g>
		<rect x="77" y="425" class="st0" width="10" height="2"/>
	</g>
	<g>
		<rect x="37" y="449" class="st0" width="48" height="2"/>
	</g>
	<g>
		<path class="st0" d="M49,445c-6.07,0-11-4.93-11-11s4.93-11,11-11c3.49,0,6.7,1.6,8.8,4.4l-1.6,1.2c-1.72-2.29-4.34-3.6-7.2-3.6
			c-4.96,0-9,4.04-9,9s4.04,9,9,9s9-4.04,9-9c0-0.92-0.14-1.83-0.41-2.7l1.91-0.6c0.33,1.06,0.5,2.17,0.5,3.3
			C60,440.07,55.07,445,49,445z"/>
	</g>
	<g>
		<polygon class="st0" points="56.4,440.8 48.1,434.58 46.02,425.22 47.98,424.78 49.9,433.42 57.6,439.2 		"/>
	</g>
	<g>
		
			<rect x="41.35" y="437.5" transform="matrix(0.4855 -0.8742 0.8742 0.4855 -359.4238 266.2491)" class="st0" width="10.3" height="2"/>
	</g>
	<g>
		<polygon class="st0" points="54.61,431.79 53.39,430.21 62.66,423 70,423 70,425 63.34,425 		"/>
	</g>
</g>
<g>
	<g>
		<path class="st0" d="M188,411h-56c-1.65,0-3-1.35-3-3s1.35-3,3-3h56c1.65,0,3,1.35,3,3S189.65,411,188,411z M132,407
			c-0.55,0-1,0.45-1,1s0.45,1,1,1h56c0.55,0,1-0.45,1-1s-0.45-1-1-1H132z"/>
	</g>
	<g>
		<path class="st0" d="M188,455h-56c-1.65,0-3-1.35-3-3s1.35-3,3-3h56c1.65,0,3,1.35,3,3S189.65,455,188,455z M132,451
			c-0.55,0-1,0.45-1,1s0.45,1,1,1h56c0.55,0,1-0.45,1-1s-0.45-1-1-1H132z"/>
	</g>
	<g>
		<rect x="132" y="413" class="st0" width="2" height="34"/>
	</g>
	<g>
		<rect x="186" y="413" class="st0" width="2" height="34"/>
	</g>
	<g>
		<rect x="159" y="454" class="st0" width="2" height="8"/>
	</g>
	<g>
		<path class="st0" d="M142,447h-6v-16h6V447z M138,445h2v-12h-2V445z"/>
	</g>
	<g>
		<path class="st0" d="M150,447h-6v-22h6V447z M146,445h2v-18h-2V445z"/>
	</g>
	<g>
		<path class="st0" d="M158,447h-6v-14h6V447z M154,445h2v-10h-2V445z"/>
	</g>
	<g>
		<path class="st0" d="M184,447h-24v-18h24V447z M162,445h20v-14h-20V445z"/>
	</g>
	<g>
		<path class="st0" d="M184,427h-22v-14h22V427z M164,425h18v-10h-18V425z"/>
	</g>
	<g>
		<rect x="166" y="417" class="st0" width="2" height="2"/>
	</g>
	<g>
		<rect x="172" y="417" class="st0" width="2" height="2"/>
	</g>
	<g>
		<rect x="178" y="417" class="st0" width="2" height="2"/>
	</g>
	<g>
		<rect x="166" y="421" class="st0" width="2" height="2"/>
	</g>
	<g>
		<rect x="172" y="421" class="st0" width="2" height="2"/>
	</g>
	<g>
		<rect x="178" y="421" class="st0" width="2" height="2"/>
	</g>
	<g>
		<rect x="164" y="433" class="st0" width="2" height="2"/>
	</g>
	<g>
		<rect x="168" y="433" class="st0" width="12" height="2"/>
	</g>
	<g>
		<rect x="164" y="437" class="st0" width="16" height="2"/>
	</g>
	<g>
		<rect x="164" y="441" class="st0" width="12" height="2"/>
	</g>
	<g>
		<rect x="178" y="441" class="st0" width="2" height="2"/>
	</g>
	<g>
		<path class="st0" d="M160,467c-1.65,0-3-1.35-3-3s1.35-3,3-3s3,1.35,3,3S161.65,467,160,467z M160,463c-0.55,0-1,0.45-1,1
			s0.45,1,1,1c0.55,0,1-0.45,1-1S160.55,463,160,463z"/>
	</g>
</g>
<g>
	<g>
		<path class="st0" d="M287,415h-62v-10h62V415z M227,413h58v-6h-58V413z"/>
	</g>
	<g>
		<rect x="229" y="409" class="st0" width="2" height="2"/>
	</g>
	<g>
		<rect x="233" y="409" class="st0" width="2" height="2"/>
	</g>
	<g>
		<rect x="237" y="409" class="st0" width="2" height="2"/>
	</g>
	<g>
		<polygon class="st0" points="287,467 225,467 225,417 227,417 227,465 285,465 285,417 287,417 		"/>
	</g>
	<g>
		<path class="st0" d="M256,446c-3.31,0-6-2.69-6-6s2.69-6,6-6c3.31,0,6,2.69,6,6S259.31,446,256,446z M256,436c-2.21,0-4,1.79-4,4
			s1.79,4,4,4c2.21,0,4-1.79,4-4S258.21,436,256,436z"/>
	</g>
	<g>
		<path class="st0" d="M256,427c-2.21,0-4-1.79-4-4s1.79-4,4-4c2.21,0,4,1.79,4,4S258.21,427,256,427z M256,421c-1.1,0-2,0.9-2,2
			s0.9,2,2,2s2-0.9,2-2S257.1,421,256,421z"/>
	</g>
	<g>
		<rect x="255" y="426" class="st0" width="2" height="9"/>
	</g>
	<g>
		<path class="st0" d="M256,459c-1.65,0-3-1.35-3-3s1.35-3,3-3c1.65,0,3,1.35,3,3S257.65,459,256,459z M256,455c-0.55,0-1,0.45-1,1
			s0.45,1,1,1c0.55,0,1-0.45,1-1S256.55,455,256,455z"/>
	</g>
	<g>
		<rect x="255" y="445" class="st0" width="2" height="9"/>
	</g>
	<g>
		<path class="st0" d="M269.86,435c-1.04,0-2.05-0.54-2.6-1.5c-0.83-1.43-0.33-3.27,1.1-4.1c1.43-0.83,3.27-0.33,4.1,1.1
			c0.83,1.43,0.33,3.27-1.1,4.1h0C270.88,434.87,270.37,435,269.86,435z M269.85,431c-0.17,0-0.34,0.04-0.5,0.13
			c-0.48,0.28-0.64,0.89-0.37,1.37c0.27,0.47,0.88,0.64,1.37,0.37c0.48-0.28,0.64-0.89,0.37-1.37
			C270.54,431.18,270.2,431,269.85,431z"/>
	</g>
	<g>
		
			<rect x="259.73" y="434.25" transform="matrix(0.8661 -0.4999 0.4999 0.8661 -182.2039 190.387)" class="st0" width="9" height="2"/>
	</g>
	<g>
		<path class="st0" d="M242.14,435c-0.51,0-1.02-0.13-1.49-0.4c-1.43-0.83-1.93-2.67-1.1-4.1c0.83-1.43,2.66-1.93,4.1-1.1h0
			c1.43,0.83,1.92,2.67,1.1,4.1C244.19,434.46,243.18,435,242.14,435z M242.15,431c-0.35,0-0.68,0.18-0.87,0.5
			c-0.28,0.48-0.11,1.09,0.37,1.37c0.48,0.27,1.09,0.11,1.37-0.37c0.28-0.48,0.11-1.09-0.37-1.37
			C242.49,431.04,242.31,431,242.15,431z"/>
	</g>
	<g>
		<rect x="246.77" y="430.75" transform="matrix(0.5 -0.866 0.866 0.5 -253.051 432.1934)" class="st0" width="2" height="9"/>
	</g>
	<g>
		<path class="st0" d="M241.28,452.5c-0.35,0-0.7-0.05-1.04-0.14c-1.03-0.28-1.89-0.94-2.43-1.86s-0.68-2-0.4-3.04
			c0.28-1.03,0.94-1.89,1.86-2.43c1.91-1.1,4.36-0.45,5.46,1.46c0.53,0.93,0.68,2,0.4,3.04c-0.28,1.03-0.94,1.89-1.86,2.43l0,0
			C242.66,452.32,241.98,452.5,241.28,452.5z M241.27,446.5c-0.34,0-0.68,0.09-1,0.27c-0.46,0.27-0.79,0.7-0.93,1.21
			c-0.14,0.52-0.07,1.05,0.2,1.52c0.27,0.46,0.7,0.79,1.21,0.93c0.52,0.14,1.06,0.07,1.52-0.2l0,0c0.46-0.27,0.79-0.7,0.93-1.21
			c0.14-0.52,0.07-1.05-0.2-1.52C242.64,446.86,241.97,446.5,241.27,446.5z"/>
	</g>
	<g>
		
			<rect x="243.27" y="443.75" transform="matrix(0.8661 -0.4999 0.4999 0.8661 -189.1569 183.4335)" class="st0" width="9" height="2"/>
	</g>
	<g>
		<path class="st0" d="M270.72,452.5c-0.69,0-1.38-0.18-1.99-0.54c-0.93-0.53-1.59-1.4-1.86-2.43c-0.28-1.03-0.13-2.11,0.4-3.04
			c1.1-1.91,3.56-2.56,5.46-1.46c0.92,0.53,1.59,1.4,1.86,2.43c0.28,1.03,0.13,2.11-0.4,3.04s-1.4,1.59-2.43,1.86
			C271.41,452.46,271.06,452.5,270.72,452.5z M270.73,446.5c-0.69,0-1.37,0.36-1.74,1c-0.27,0.46-0.34,1-0.2,1.52
			c0.14,0.52,0.47,0.95,0.93,1.21c0.46,0.27,1,0.34,1.52,0.2c0.52-0.14,0.95-0.47,1.21-0.93c0.27-0.46,0.34-1,0.2-1.52
			c-0.14-0.52-0.47-0.95-0.93-1.21l0,0C271.41,446.59,271.07,446.5,270.73,446.5z"/>
	</g>
	<g>
		<rect x="263.23" y="440.25" transform="matrix(0.5 -0.866 0.866 0.5 -253.0514 451.1931)" class="st0" width="2" height="9"/>
	</g>
	<g>
		<rect x="267" y="417" class="st0" width="16" height="2"/>
	</g>
	<g>
		<rect x="271" y="421" class="st0" width="12" height="2"/>
	</g>
	<g>
		<rect x="267" y="421" class="st0" width="2" height="2"/>
	</g>
	<g>
		<rect x="281" y="425" class="st0" width="2" height="2"/>
	</g>
	<g>
		<rect x="267" y="425" class="st0" width="12" height="2"/>
	</g>
	<g>
		<rect x="229" y="457" class="st0" width="14" height="2"/>
	</g>
	<g>
		<rect x="235" y="461" class="st0" width="2" height="2"/>
	</g>
	<g>
		<rect x="241" y="461" class="st0" width="2" height="2"/>
	</g>
	<g>
		<rect x="229" y="461" class="st0" width="2" height="2"/>
	</g>
	<g>
		<polygon class="st0" points="284,463 268,463 268,455 270,455 270,461 282,461 282,451 277,451 277,449 284,449 		"/>
	</g>
	<g>
		<rect x="272" y="457" class="st0" width="8" height="2"/>
	</g>
	<g>
		<rect x="274" y="453" class="st0" width="6" height="2"/>
	</g>
	<g>
		<polygon class="st0" points="237,431 229,431 229,417 245,417 245,427 243,427 243,419 231,419 231,429 237,429 		"/>
	</g>
	<g>
		<rect x="233" y="421" class="st0" width="8" height="2"/>
	</g>
	<g>
		<rect x="233" y="425" class="st0" width="8" height="2"/>
	</g>
</g>
<g>
	<g>
		<path class="st0" d="M380,467h-16c-1.65,0-3-1.35-3-3v-7h22v7C383,465.65,381.65,467,380,467z M363,459v5c0,0.55,0.45,1,1,1h16
			c0.55,0,1-0.45,1-1v-5H363z"/>
	</g>
	<g>
		<path class="st0" d="M383,455h-2v-21c0-0.55-0.45-1-1-1h-16c-0.55,0-1,0.45-1,1v21h-2v-21c0-1.65,1.35-3,3-3h16c1.65,0,3,1.35,3,3
			V455z"/>
	</g>
	<g>
		<rect x="362" y="437" class="st0" width="20" height="2"/>
	</g>
	<g>
		<rect x="369" y="461" class="st0" width="6" height="2"/>
	</g>
	<g>
		<path class="st0" d="M340,467h-16c-1.65,0-3-1.35-3-3v-7h22v7C343,465.65,341.65,467,340,467z M323,459v5c0,0.55,0.45,1,1,1h16
			c0.55,0,1-0.45,1-1v-5H323z"/>
	</g>
	<g>
		<path class="st0" d="M343,455h-2v-21c0-0.55-0.45-1-1-1h-16c-0.55,0-1,0.45-1,1v21h-2v-21c0-1.65,1.35-3,3-3h16c1.65,0,3,1.35,3,3
			V455z"/>
	</g>
	<g>
		<rect x="322" y="437" class="st0" width="20" height="2"/>
	</g>
	<g>
		<rect x="329" y="461" class="st0" width="6" height="2"/>
	</g>
	<g>
		<polygon class="st0" points="353,448.08 353,445 347,445 347,443 355,443 355,443.92 357.4,442 355,440.08 355,441 347,441 
			347,439 353,439 353,435.92 360.6,442 		"/>
	</g>
	<g>
		<polygon class="st0" points="353,448.08 353,445 347,445 347,443 355,443 355,443.92 357.4,442 355,440.08 355,441 347,441 
			347,439 353,439 353,435.92 360.6,442 		"/>
	</g>
	<g>
		<polygon class="st0" points="351,460.08 343.4,454 351,447.92 351,451 357,451 357,453 349,453 349,452.08 346.6,454 349,455.92 
			349,455 357,455 357,457 351,457 		"/>
	</g>
	<g>
		<path class="st0" d="M352,433c-7.72,0-14-6.28-14-14s6.28-14,14-14s14,6.28,14,14S359.72,433,352,433z M352,407
			c-6.62,0-12,5.38-12,12s5.38,12,12,12c6.62,0,12-5.38,12-12S358.62,407,352,407z"/>
	</g>
	<g>
		<path class="st0" d="M352,427c-4.41,0-8-3.59-8-8s3.59-8,8-8s8,3.59,8,8S356.41,427,352,427z M352,413c-3.31,0-6,2.69-6,6
			s2.69,6,6,6s6-2.69,6-6S355.31,413,352,413z"/>
	</g>
	<g>
		<rect x="351" y="406" class="st0" width="2" height="6"/>
	</g>
	<g>
		
			<rect x="354.96" y="425.79" transform="matrix(0.9231 -0.3846 0.3846 0.9231 -137.4116 169.8406)" class="st0" width="2" height="5.42"/>
	</g>
	<g>
		
			<rect x="338.86" y="421.08" transform="matrix(0.9559 -0.2938 0.2938 0.9559 -108.921 119.1194)" class="st0" width="6.28" height="2"/>
	</g>
	<g>
		<rect x="368" y="418" class="st0" width="2" height="2"/>
	</g>
	<g>
		<rect x="372" y="418" class="st0" width="2" height="2"/>
	</g>
	<g>
		<rect x="372" y="422" class="st0" width="2" height="2"/>
	</g>
	<g>
		<rect x="372" y="426" class="st0" width="2" height="2"/>
	</g>
	<g>
		<rect x="334" y="418" class="st0" width="2" height="2"/>
	</g>
	<g>
		<rect x="330" y="418" class="st0" width="2" height="2"/>
	</g>
	<g>
		<rect x="330" y="422" class="st0" width="2" height="2"/>
	</g>
	<g>
		<rect x="330" y="426" class="st0" width="2" height="2"/>
	</g>
</g>
<g>
	<g>
		<path class="st0" d="M441.9,445h-9.79l-0.55-4.96c-0.45-0.16-0.89-0.35-1.34-0.56l-3.9,3.12l-6.92-6.92l3.12-3.9
			c-0.21-0.45-0.4-0.89-0.56-1.34L417,429.9v-9.79l4.96-0.55c0.16-0.45,0.35-0.89,0.56-1.34l-3.12-3.9l6.92-6.92l3.9,3.12
			c0.45-0.21,0.89-0.4,1.34-0.56l0.55-4.96h9.79l0.55,4.96c0.45,0.16,0.89,0.35,1.34,0.56l3.9-3.12l6.92,6.92l-3.12,3.9
			c0.31,0.65,0.57,1.31,0.77,1.96l-1.91,0.6c-0.23-0.74-0.54-1.49-0.93-2.23l-0.3-0.58l2.81-3.51l-4.39-4.39l-3.51,2.81l-0.58-0.3
			c-0.74-0.39-1.49-0.7-2.23-0.93l-0.62-0.2l-0.5-4.46h-6.21l-0.5,4.46l-0.62,0.2c-0.74,0.23-1.49,0.54-2.23,0.93l-0.58,0.3
			l-3.51-2.81l-4.39,4.39l2.81,3.51l-0.3,0.58c-0.39,0.74-0.7,1.49-0.93,2.23l-0.2,0.62l-4.46,0.5v6.21l4.46,0.5l0.2,0.62
			c0.23,0.74,0.54,1.49,0.93,2.23l0.3,0.58l-2.81,3.51l4.39,4.39l3.51-2.81l0.58,0.3c0.74,0.39,1.49,0.7,2.23,0.93l0.62,0.2
			l0.5,4.46h6.21l0.5-4.46l0.62-0.2c0.74-0.23,1.49-0.54,2.23-0.93l0.58-0.3l3.51,2.81l4.39-4.39l-2.81-3.51l0.3-0.58
			c0.39-0.74,0.7-1.49,0.93-2.23l1.91,0.6c-0.2,0.65-0.46,1.31-0.77,1.96l3.12,3.9l-6.92,6.92l-3.9-3.12
			c-0.45,0.21-0.89,0.4-1.34,0.56L441.9,445z"/>
	</g>
	<g>
		<path class="st0" d="M437,437c-6.62,0-12-5.38-12-12s5.38-12,12-12c6.62,0,12,5.38,12,12S443.62,437,437,437z M437,415
			c-5.51,0-10,4.49-10,10s4.49,10,10,10s10-4.49,10-10S442.51,415,437,415z"/>
	</g>
	<g>
		<path class="st0" d="M437,467c-2.76,0-5-2.24-5-5v-15h2v15c0,1.65,1.35,3,3,3s3-1.35,3-3v-15h2v15C442,464.76,439.76,467,437,467z
			"/>
	</g>
	<g>
		<rect x="430" y="449" class="st0" width="14" height="2"/>
	</g>
	<g>
		<polygon class="st0" points="455.29,429.71 450.59,425 455.29,420.29 456.71,421.71 453.41,425 456.71,428.29 		"/>
	</g>
	<g>
		<polygon class="st0" points="477.29,429.71 472.59,425 477.29,420.29 478.71,421.71 475.41,425 478.71,428.29 		"/>
	</g>
	<g>
		<polygon class="st0" points="472.29,429.71 467.59,425 472.29,420.29 473.71,421.71 470.41,425 473.71,428.29 		"/>
	</g>
	<g>
		<rect x="452" y="424" class="st0" width="23" height="2"/>
	</g>
	<g>
		<polygon class="st0" points="444.29,433.71 436,425.41 436,414 438,414 438,424.59 445.71,432.29 		"/>
	</g>
	<g>
		<rect x="459" y="418" class="st0" width="2" height="2"/>
	</g>
	<g>
		<rect x="463" y="418" class="st0" width="2" height="2"/>
	</g>
	<g>
		<rect x="467" y="418" class="st0" width="2" height="2"/>
	</g>
	<g>
		<rect x="459" y="430" class="st0" width="2" height="2"/>
	</g>
	<g>
		<rect x="463" y="430" class="st0" width="2" height="2"/>
	</g>
	<g>
		<rect x="467" y="430" class="st0" width="2" height="2"/>
	</g>
</g>
<g>
	<g>
		<path class="st0" d="M518,455c-2.76,0-5-2.24-5-5s2.24-5,5-5c2.76,0,5,2.24,5,5S520.76,455,518,455z M518,447c-1.65,0-3,1.35-3,3
			s1.35,3,3,3s3-1.35,3-3S519.65,447,518,447z"/>
	</g>
	<g>
		<path class="st0" d="M534,441c-2.76,0-5-2.24-5-5s2.24-5,5-5c2.76,0,5,2.24,5,5S536.76,441,534,441z M534,433c-1.65,0-3,1.35-3,3
			s1.35,3,3,3s3-1.35,3-3S535.65,433,534,433z"/>
	</g>
	<g>
		<path class="st0" d="M552,455c-2.76,0-5-2.24-5-5s2.24-5,5-5c2.76,0,5,2.24,5,5S554.76,455,552,455z M552,447c-1.65,0-3,1.35-3,3
			s1.35,3,3,3s3-1.35,3-3S553.65,447,552,447z"/>
	</g>
	<g>
		<path class="st0" d="M570.01,439c-0.43,0-0.87-0.06-1.3-0.17c-1.29-0.35-2.37-1.17-3.04-2.33c-0.67-1.16-0.84-2.5-0.5-3.79
			c0.35-1.29,1.17-2.37,2.33-3.04c1.16-0.67,2.5-0.85,3.79-0.5c1.29,0.35,2.37,1.17,3.04,2.33c0.67,1.16,0.84,2.5,0.5,3.79
			c-0.35,1.29-1.17,2.37-2.33,3.04C571.73,438.77,570.87,439,570.01,439z M570,431c-0.51,0-1.02,0.13-1.5,0.4
			c-1.43,0.83-1.92,2.67-1.1,4.1c0.83,1.43,2.67,1.93,4.1,1.1c1.43-0.83,1.92-2.67,1.1-4.1C572.04,431.54,571.03,431,570,431z"/>
	</g>
	<g>
		<rect x="517" y="457" class="st0" width="2" height="9"/>
	</g>
	<g>
		<rect x="521" y="456" class="st0" width="2" height="10"/>
	</g>
	<g>
		<rect x="525" y="447" class="st0" width="2" height="19"/>
	</g>
	<g>
		<rect x="529" y="443" class="st0" width="2" height="23"/>
	</g>
	<g>
		<rect x="533" y="443" class="st0" width="2" height="23"/>
	</g>
	<g>
		<rect x="537" y="443" class="st0" width="2" height="23"/>
	</g>
	<g>
		<rect x="541" y="446" class="st0" width="2" height="20"/>
	</g>
	<g>
		<rect x="545" y="453" class="st0" width="2" height="13"/>
	</g>
	<g>
		<rect x="549" y="457" class="st0" width="2" height="9"/>
	</g>
	<g>
		<rect x="553" y="457" class="st0" width="2" height="9"/>
	</g>
	<g>
		<rect x="557" y="453" class="st0" width="2" height="13"/>
	</g>
	<g>
		<rect x="561" y="445" class="st0" width="2" height="21"/>
	</g>
	<g>
		<rect x="565" y="442" class="st0" width="2" height="24"/>
	</g>
	<g>
		<rect x="569" y="441" class="st0" width="2" height="25"/>
	</g>
	<g>
		<rect x="513" y="465" class="st0" width="62" height="2"/>
	</g>
	<g>
		
			<rect x="552.97" y="441" transform="matrix(0.7474 -0.6644 0.6644 0.7474 -151.9451 484.3591)" class="st0" width="16.06" height="2"/>
	</g>
	<g>
		
			<rect x="542" y="435.4" transform="matrix(0.614 -0.7893 0.7893 0.614 -140.0582 599.6189)" class="st0" width="2" height="15.2"/>
	</g>
	<g>
		
			<rect x="519.36" y="442" transform="matrix(0.7529 -0.6582 0.6582 0.7529 -161.5786 455.6779)" class="st0" width="13.29" height="2"/>
	</g>
	<g>
		<polygon class="st0" points="523,443 521,443 521,429 515.59,429 529,415.59 542.41,429 537,429 537,430 535,430 535,427 
			537.59,427 529,418.41 520.41,427 523,427 		"/>
	</g>
	<g>
		<polygon class="st0" points="539,422 537,422 537,418 531.59,418 545,404.59 552.71,412.29 551.29,413.71 545,407.41 536.41,416 
			539,416 		"/>
	</g>
	<g>
		<polygon class="st0" points="553,443 551,443 551,422 545.59,422 559,408.59 572.41,422 567,422 567,428 565,428 565,420 
			567.59,420 559,411.41 550.41,420 553,420 		"/>
	</g>
	<g>
		<rect x="558" y="435" class="st0" width="2" height="2"/>
	</g>
	<g>
		<rect x="558" y="431" class="st0" width="2" height="2"/>
	</g>
	<g>
		<rect x="558" y="427" class="st0" width="2" height="2"/>
	</g>
	<g>
		<rect x="544" y="437" class="st0" width="2" height="2"/>
	</g>
	<g>
		<rect x="544" y="433" class="st0" width="2" height="2"/>
	</g>
	<g>
		<rect x="544" y="429" class="st0" width="2" height="2"/>
	</g>
	<g>
		<rect x="528" y="431" class="st0" width="2" height="2"/>
	</g>
	<g>
		<rect x="528" y="427" class="st0" width="2" height="2"/>
	</g>
</g>
<g>
	<g>
		<path class="st0" d="M76,527H52c-1.65,0-3-1.35-3-3v-12c0-1.65,1.35-3,3-3h14.59l3.12-3.12c0.57-0.57,1.32-0.88,2.12-0.88H76
			c1.65,0,3,1.35,3,3v16C79,525.65,77.65,527,76,527z M52,511c-0.55,0-1,0.45-1,1v12c0,0.55,0.45,1,1,1h24c0.55,0,1-0.45,1-1v-16
			c0-0.55-0.45-1-1-1h-4.17c-0.26,0-0.52,0.11-0.71,0.29L67.41,511H52z"/>
	</g>
	<g>
		<rect x="50" y="513" class="st0" width="28" height="2"/>
	</g>
	<g>
		<polygon class="st0" points="55,507 53,507 53,501 75,501 75,506 73,506 73,503 55,503 		"/>
	</g>
	<g>
		<rect x="57" y="505" class="st0" width="2" height="2"/>
	</g>
	<g>
		<rect x="61" y="505" class="st0" width="6" height="2"/>
	</g>
	<g>
		<path class="st0" d="M75,523h-8v-6h8V523z M69,521h4v-2h-4V521z"/>
	</g>
	<g>
		<path class="st0" d="M51,563H33v-22h18V563z M35,561h14v-18H35V561z"/>
	</g>
	<g>
		<path class="st0" d="M42,537c-1.65,0-3-1.35-3-3s1.35-3,3-3s3,1.35,3,3S43.65,537,42,537z M42,533c-0.55,0-1,0.45-1,1s0.45,1,1,1
			s1-0.45,1-1S42.55,533,42,533z"/>
	</g>
	<g>
		<path class="st0" d="M64,537c-1.65,0-3-1.35-3-3s1.35-3,3-3c1.65,0,3,1.35,3,3S65.65,537,64,537z M64,533c-0.55,0-1,0.45-1,1
			s0.45,1,1,1c0.55,0,1-0.45,1-1S64.55,533,64,533z"/>
	</g>
	<g>
		<path class="st0" d="M86,537c-1.65,0-3-1.35-3-3s1.35-3,3-3s3,1.35,3,3S87.65,537,86,537z M86,533c-0.55,0-1,0.45-1,1s0.45,1,1,1
			s1-0.45,1-1S86.55,533,86,533z"/>
	</g>
	<g>
		<rect x="63" y="529" class="st0" width="2" height="3"/>
	</g>
	<g>
		<rect x="44" y="533" class="st0" width="18" height="2"/>
	</g>
	<g>
		<rect x="66" y="533" class="st0" width="18" height="2"/>
	</g>
	<g>
		<rect x="85" y="536" class="st0" width="2" height="3"/>
	</g>
	<g>
		<rect x="63" y="536" class="st0" width="2" height="3"/>
	</g>
	<g>
		<rect x="41" y="536" class="st0" width="2" height="3"/>
	</g>
	<g>
		<rect x="37" y="545" class="st0" width="10" height="2"/>
	</g>
	<g>
		<rect x="37" y="549" class="st0" width="10" height="2"/>
	</g>
	<g>
		<rect x="45" y="553" class="st0" width="2" height="2"/>
	</g>
	<g>
		<rect x="37" y="553" class="st0" width="6" height="2"/>
	</g>
	<g>
		<rect x="37" y="557" class="st0" width="10" height="2"/>
	</g>
	<g>
		<path class="st0" d="M73,563H55v-22h18V563z M57,561h14v-18H57V561z"/>
	</g>
	<g>
		<rect x="59" y="545" class="st0" width="10" height="2"/>
	</g>
	<g>
		<rect x="63" y="549" class="st0" width="6" height="2"/>
	</g>
	<g>
		<rect x="59" y="549" class="st0" width="2" height="2"/>
	</g>
	<g>
		<rect x="59" y="553" class="st0" width="10" height="2"/>
	</g>
	<g>
		<rect x="59" y="557" class="st0" width="10" height="2"/>
	</g>
	<g>
		<path class="st0" d="M95,563H77v-22h18V563z M79,561h14v-18H79V561z"/>
	</g>
	<g>
		<rect x="81" y="545" class="st0" width="10" height="2"/>
	</g>
	<g>
		<rect x="81" y="549" class="st0" width="10" height="2"/>
	</g>
	<g>
		<rect x="81" y="553" class="st0" width="10" height="2"/>
	</g>
	<g>
		<rect x="89" y="557" class="st0" width="2" height="2"/>
	</g>
	<g>
		<rect x="81" y="557" class="st0" width="6" height="2"/>
	</g>
	<g>
		<rect x="91" y="521" class="st0" width="2" height="2"/>
	</g>
	<g>
		<rect x="91" y="525" class="st0" width="2" height="2"/>
	</g>
	<g>
		<rect x="93" y="523" class="st0" width="2" height="2"/>
	</g>
	<g>
		<rect x="89" y="523" class="st0" width="2" height="2"/>
	</g>
	<g>
		<rect x="85" y="513" class="st0" width="2" height="2"/>
	</g>
	<g>
		<rect x="85" y="517" class="st0" width="2" height="2"/>
	</g>
	<g>
		<rect x="87" y="515" class="st0" width="2" height="2"/>
	</g>
	<g>
		<rect x="83" y="515" class="st0" width="2" height="2"/>
	</g>
	<g>
		<rect x="91" y="505" class="st0" width="2" height="2"/>
	</g>
	<g>
		<rect x="91" y="509" class="st0" width="2" height="2"/>
	</g>
	<g>
		<rect x="93" y="507" class="st0" width="2" height="2"/>
	</g>
	<g>
		<rect x="89" y="507" class="st0" width="2" height="2"/>
	</g>
	<g>
		<rect x="35" y="521" class="st0" width="2" height="2"/>
	</g>
	<g>
		<rect x="35" y="525" class="st0" width="2" height="2"/>
	</g>
	<g>
		<rect x="33" y="523" class="st0" width="2" height="2"/>
	</g>
	<g>
		<rect x="37" y="523" class="st0" width="2" height="2"/>
	</g>
	<g>
		<rect x="41" y="513" class="st0" width="2" height="2"/>
	</g>
	<g>
		<rect x="41" y="517" class="st0" width="2" height="2"/>
	</g>
	<g>
		<rect x="39" y="515" class="st0" width="2" height="2"/>
	</g>
	<g>
		<rect x="43" y="515" class="st0" width="2" height="2"/>
	</g>
	<g>
		<rect x="35" y="505" class="st0" width="2" height="2"/>
	</g>
	<g>
		<rect x="35" y="509" class="st0" width="2" height="2"/>
	</g>
	<g>
		<rect x="33" y="507" class="st0" width="2" height="2"/>
	</g>
	<g>
		<rect x="37" y="507" class="st0" width="2" height="2"/>
	</g>
</g>
<g>
	<g>
		<path class="st0" d="M162,563h-28c-2.76,0-5-2.24-5-5v-5h38v5C167,560.76,164.76,563,162,563z M131,555v3c0,1.65,1.35,3,3,3h28
			c1.65,0,3-1.35,3-3v-3H131z"/>
	</g>
	<g>
		<rect x="165" y="547" class="st0" width="2" height="4"/>
	</g>
	<g>
		<path class="st0" d="M131,551h-2v-45c0-2.76,2.24-5,5-5h28c2.76,0,5,2.24,5,5v15h-2v-15c0-1.65-1.35-3-3-3h-28c-1.65,0-3,1.35-3,3
			V551z"/>
	</g>
	<g>
		<rect x="143" y="557" class="st0" width="10" height="2"/>
	</g>
	<g>
		<rect x="130" y="507" class="st0" width="36" height="2"/>
	</g>
	<g>
		<polygon class="st0" points="163,551 133,551 133,511 163,511 163,519 161,519 161,513 135,513 135,549 161,549 161,547 163,547 
					"/>
	</g>
	<g>
		<path class="st0" d="M155,547c-7.72,0-14-6.28-14-14h2c0,6.62,5.38,12,12,12s12-5.38,12-12s-5.38-12-12-12v-2
			c7.72,0,14,6.28,14,14S162.72,547,155,547z"/>
	</g>
	<g>
		<path class="st0" d="M155,543c-5.51,0-10-4.49-10-10h2c0,4.41,3.59,8,8,8s8-3.59,8-8s-3.59-8-8-8v-2c5.51,0,10,4.49,10,10
			S160.51,543,155,543z"/>
	</g>
	<g>
		<path class="st0" d="M186,538h-15v-2h15c1.65,0,3-1.35,3-3s-1.35-3-3-3h-15v-2h15c2.76,0,5,2.24,5,5S188.76,538,186,538z"/>
	</g>
	<g>
		<rect x="173" y="526" class="st0" width="2" height="14"/>
	</g>
	<g>
		<rect x="137" y="529" class="st0" width="18" height="2"/>
	</g>
	<g>
		<rect x="139" y="524" class="st0" width="2" height="6"/>
	</g>
	<g>
		<rect x="143" y="521" class="st0" width="2" height="9"/>
	</g>
	<g>
		<rect x="147" y="517" class="st0" width="2" height="13"/>
	</g>
	<g>
		<rect x="151" y="520" class="st0" width="2" height="10"/>
	</g>
</g>
<g>
	<g>
		<path class="st0" d="M287,511h-62v-10h62V511z M227,509h58v-6h-58V509z"/>
	</g>
	<g>
		<rect x="229" y="505" class="st0" width="2" height="2"/>
	</g>
	<g>
		<rect x="233" y="505" class="st0" width="2" height="2"/>
	</g>
	<g>
		<rect x="237" y="505" class="st0" width="2" height="2"/>
	</g>
	<g>
		<polygon class="st0" points="261,559 225,559 225,513 227,513 227,557 261,557 		"/>
	</g>
	<g>
		<polygon class="st0" points="287,559 275,559 275,557 285,557 285,513 287,513 		"/>
	</g>
	<g>
		<path class="st0" d="M268,531c-1.65,0-3-1.35-3-3s1.35-3,3-3s3,1.35,3,3S269.65,531,268,531z M268,527c-0.55,0-1,0.45-1,1
			s0.45,1,1,1c0.55,0,1-0.45,1-1S268.55,527,268,527z"/>
	</g>
	<g>
		<path class="st0" d="M254,524c-1.65,0-3-1.35-3-3s1.35-3,3-3c1.65,0,3,1.35,3,3S255.65,524,254,524z M254,520c-0.55,0-1,0.45-1,1
			s0.45,1,1,1c0.55,0,1-0.45,1-1S254.55,520,254,520z"/>
	</g>
	<g>
		<path class="st0" d="M243,535c-1.65,0-3-1.35-3-3s1.35-3,3-3c1.65,0,3,1.35,3,3S244.65,535,243,535z M243,531c-0.55,0-1,0.45-1,1
			s0.45,1,1,1c0.55,0,1-0.45,1-1S243.55,531,243,531z"/>
	</g>
	<g>
		<path class="st0" d="M232,519c-1.65,0-3-1.35-3-3s1.35-3,3-3c1.65,0,3,1.35,3,3S233.65,519,232,519z M232,515c-0.55,0-1,0.45-1,1
			s0.45,1,1,1c0.55,0,1-0.45,1-1S232.55,515,232,515z"/>
	</g>
	<g>
		<path class="st0" d="M249,555h-20v-14h20V555z M231,553h16v-10h-16V553z"/>
	</g>
	<g>
		<rect x="243" y="549" class="st0" width="2" height="2"/>
	</g>
	<g>
		<rect x="233" y="549" class="st0" width="8" height="2"/>
	</g>
	<g>
		<rect x="233" y="545" class="st0" width="12" height="2"/>
	</g>
	<g>
		<path class="st0" d="M268,563c-2.76,0-5-2.24-5-5v-11h2v11c0,1.65,1.35,3,3,3s3-1.35,3-3v-11h2v11C273,560.76,270.76,563,268,563z
			"/>
	</g>
	<g>
		<rect x="261" y="549" class="st0" width="14" height="2"/>
	</g>
	<g>
		
			<rect x="260" y="518.67" transform="matrix(0.4472 -0.8944 0.8944 0.4472 -324.85 523.4029)" class="st0" width="2" height="11.66"/>
	</g>
	<g>
		<path class="st0" d="M268,539c-6.07,0-11-4.93-11-11c0-0.94,0.13-1.9,0.38-2.85l1.93,0.52c-0.21,0.78-0.32,1.57-0.32,2.33
			c0,4.96,4.04,9,9,9c4.96,0,9-4.04,9-9s-4.04-9-9-9c-2.77,0-5.35,1.26-7.08,3.45l-1.57-1.24c2.1-2.68,5.26-4.21,8.65-4.21
			c6.07,0,11,4.93,11,11S274.07,539,268,539z"/>
	</g>
	<g>
		
			<rect x="242.95" y="525.41" transform="matrix(0.7071 -0.7071 0.7071 0.7071 -299.4135 329.9633)" class="st0" width="11.29" height="2"/>
	</g>
	<g>
		
			<rect x="236.57" y="516.51" transform="matrix(0.824 -0.5665 0.5665 0.824 -255.1187 226.8137)" class="st0" width="2" height="15.18"/>
	</g>
	<g>
		<path class="st0" d="M268,543c-8.27,0-15-6.73-15-15c0-0.66,0.05-1.34,0.17-2.16l1.98,0.28c-0.1,0.72-0.15,1.31-0.15,1.88
			c0,7.17,5.83,13,13,13s13-5.83,13-13s-5.83-13-13-13c-3.48,0-6.75,1.36-9.21,3.83l-1.42-1.41c2.84-2.85,6.61-4.42,10.63-4.42
			c8.27,0,15,6.73,15,15S276.27,543,268,543z"/>
	</g>
</g>
<g>
	<g>
		<rect x="357" y="513" class="st0" width="2" height="2"/>
	</g>
	<g>
		<polygon class="st0" points="343,547 321,547 321,501 351.45,501 359,509.62 359,511 357,511 357,510.38 350.55,503 323,503 
			323,545 343,545 		"/>
	</g>
	<g>
		<polygon class="st0" points="358,511 350,511 350,502 352,502 352,509 358,509 		"/>
	</g>
	<g>
		<polygon class="st0" points="383,563 345,563 345,517 375.45,517 383,525.62 383,527 381,527 381,526.38 374.55,519 347,519 
			347,561 381,561 381,529 383,529 		"/>
	</g>
	<g>
		<polygon class="st0" points="382,527 374,527 374,518 376,518 376,525 382,525 		"/>
	</g>
	<g>
		<path class="st0" d="M360,555c-6.07,0-11-4.93-11-11s4.93-11,11-11s11,4.93,11,11S366.07,555,360,555z M360,535
			c-4.96,0-9,4.04-9,9s4.04,9,9,9c4.96,0,9-4.04,9-9S364.96,535,360,535z"/>
	</g>
	<g>
		<polygon class="st0" points="367.47,549.85 359,544.55 359,534 361,534 361,543.45 368.53,548.15 		"/>
	</g>
	<g>
		<polygon class="st0" points="369.71,533.71 368.29,532.29 371.59,529 379,529 379,531 372.41,531 		"/>
	</g>
	<g>
		<rect x="373" y="533" class="st0" width="6" height="2"/>
	</g>
	<g>
		<polygon class="st0" points="379,559 371.59,559 368.29,555.71 369.71,554.29 372.41,557 379,557 		"/>
	</g>
	<g>
		<rect x="373" y="553" class="st0" width="6" height="2"/>
	</g>
	<g>
		<rect x="349" y="521" class="st0" width="10" height="2"/>
	</g>
	<g>
		<rect x="357" y="525" class="st0" width="2" height="2"/>
	</g>
	<g>
		<rect x="349" y="525" class="st0" width="6" height="2"/>
	</g>
	<g>
		<rect x="325" y="530" class="st0" width="18" height="2"/>
	</g>
	<g>
		<polygon class="st0" points="333,531 331,531 331,518 329,518 329,531 327,531 327,516 333,516 		"/>
	</g>
	<g>
		<polygon class="st0" points="341,531 339,531 339,514 337,514 337,531 335,531 335,512 341,512 		"/>
	</g>
	<g>
		<rect x="325" y="534" class="st0" width="18" height="2"/>
	</g>
</g>
<g>
	<g>
		<polygon class="st0" points="433,519 417,519 417,501 463,501 463,507 461,507 461,503 419,503 419,517 433,517 		"/>
	</g>
	<g>
		<polygon class="st0" points="431,541 417,541 417,523 431,523 431,525 419,525 419,539 431,539 		"/>
	</g>
	<g>
		<polygon class="st0" points="463,563 417,563 417,545 433,545 433,547 419,547 419,561 461,561 461,557 463,557 		"/>
	</g>
	<g>
		<rect x="419" y="518" class="st0" width="2" height="6"/>
	</g>
	<g>
		<rect x="419" y="540" class="st0" width="2" height="6"/>
	</g>
	<g>
		<path class="st0" d="M455,556c-13.23,0-24-10.77-24-24s10.77-24,24-24s24,10.77,24,24S468.23,556,455,556z M455,510
			c-12.13,0-22,9.87-22,22s9.87,22,22,22c12.13,0,22-9.87,22-22S467.13,510,455,510z"/>
	</g>
	<g>
		<rect x="436" y="537" class="st0" width="38" height="2"/>
	</g>
	<g>
		<polygon class="st0" points="446,535 444,535 444,526 442,526 442,535 440,535 440,524 446,524 		"/>
	</g>
	<g>
		<polygon class="st0" points="454,535 452,535 452,522 450,522 450,535 448,535 448,520 454,520 		"/>
	</g>
	<g>
		<polygon class="st0" points="462,535 460,535 460,518 458,518 458,535 456,535 456,516 462,516 		"/>
	</g>
	<g>
		<polygon class="st0" points="470,535 468,535 468,524 466,524 466,535 464,535 464,522 470,522 		"/>
	</g>
	<g>
		<rect x="438" y="541" class="st0" width="2" height="2"/>
	</g>
	<g>
		<rect x="470" y="541" class="st0" width="2" height="2"/>
	</g>
	<g>
		<rect x="442" y="541" class="st0" width="26" height="2"/>
	</g>
</g>
<g>
	<g>
		<path class="st0" d="M569,563h-40c-3.31,0-6-2.69-6-6v-50c0-2.21-1.79-4-4-4s-4,1.79-4,4v6h6v2h-8v-8c0-3.31,2.69-6,6-6
			s6,2.69,6,6v50c0,2.21,1.79,4,4,4s4-1.79,4-4v-6h42v6C575,560.31,572.31,563,569,563z M533.47,561H569c2.21,0,4-1.79,4-4v-4h-38v4
			C535,558.54,534.42,559.94,533.47,561z"/>
	</g>
	<g>
		<path class="st0" d="M565,507h-2c0-2.21-1.79-4-4-4h-40v-2h40C562.31,501,565,503.69,565,507z"/>
	</g>
	<g>
		<rect x="563" y="521" class="st0" width="2" height="16"/>
	</g>
	<g>
		<path class="st0" d="M542,542c-7.17,0-13-5.83-13-13s5.83-13,13-13s13,5.83,13,13S549.17,542,542,542z M542,518
			c-6.07,0-11,4.93-11,11s4.93,11,11,11c6.07,0,11-4.93,11-11S548.07,518,542,518z"/>
	</g>
	<g>
		<path class="st0" d="M542,537c-4.41,0-8-3.59-8-8s3.59-8,8-8c4.41,0,8,3.59,8,8S546.41,537,542,537z M542,523c-3.31,0-6,2.69-6,6
			s2.69,6,6,6s6-2.69,6-6S545.31,523,542,523z"/>
	</g>
	<g>
		
			<rect x="550" y="530.14" transform="matrix(0.3417 -0.9398 0.9398 0.3417 -137.494 868.2662)" class="st0" width="2" height="4.26"/>
	</g>
	<g>
		
			<rect x="535.4" y="518.56" transform="matrix(0.8193 -0.5734 0.5734 0.8193 -201.8059 401.7605)" class="st0" width="2" height="4.88"/>
	</g>
	<g>
		<path class="st0" d="M575,519h-16v-10h16V519z M561,517h12v-6h-12V517z"/>
	</g>
	<g>
		<rect x="563" y="513" class="st0" width="8" height="2"/>
	</g>
	<g>
		<polygon class="st0" points="552.71,518.71 551.29,517.29 555.59,513 560,513 560,515 556.41,515 		"/>
	</g>
	<g>
		<path class="st0" d="M575,549h-16v-10h16V549z M561,547h12v-6h-12V547z"/>
	</g>
	<g>
		<rect x="563" y="543" class="st0" width="8" height="2"/>
	</g>
	<g>
		<polygon class="st0" points="560,545 555.59,545 551.29,540.71 552.71,539.29 556.41,543 560,543 		"/>
	</g>
	<g>
		<rect x="533" y="507" class="st0" width="12" height="2"/>
	</g>
	<g>
		<rect x="533" y="511" class="st0" width="5" height="2"/>
	</g>
	<g>
		<rect x="540" y="511" class="st0" width="5" height="2"/>
	</g>
</g>
</svg>
