<?xml version="1.0" encoding="UTF-8" standalone="no"?>
<!-- Created with Inkscape (http://www.inkscape.org/) -->

<svg
   width="16.404264mm"
   height="16.512646mm"
   viewBox="0 0 16.404264 16.512646"
   version="1.1"
   id="svg31971"
   inkscape:version="1.2 (dc2aedaf03, 2022-05-15)"
   sodipodi:docname="strategy.svg"
   xmlns:inkscape="http://www.inkscape.org/namespaces/inkscape"
   xmlns:sodipodi="http://sodipodi.sourceforge.net/DTD/sodipodi-0.dtd"
   xmlns="http://www.w3.org/2000/svg"
   xmlns:svg="http://www.w3.org/2000/svg">
  <sodipodi:namedview
     id="namedview31973"
     pagecolor="#ffffff"
     bordercolor="#000000"
     borderopacity="0.25"
     inkscape:showpageshadow="2"
     inkscape:pageopacity="0.0"
     inkscape:pagecheckerboard="0"
     inkscape:deskcolor="#d1d1d1"
     inkscape:document-units="mm"
     showgrid="false"
     inkscape:zoom="3.9105941"
     inkscape:cx="-24.292984"
     inkscape:cy="3.3243031"
     inkscape:window-width="1920"
     inkscape:window-height="974"
     inkscape:window-x="-11"
     inkscape:window-y="-11"
     inkscape:window-maximized="1"
     inkscape:current-layer="layer1" />
  <defs
     id="defs31968">
	
	
	
	
	
	
	
	
	
	
	
	
	
	
	
	
	
	
	
	
	
	
	
	
	
	
	
	
	
	
	
	
	

		
	</defs>
  <g
     inkscape:label="Layer 1"
     inkscape:groupmode="layer"
     id="layer1"
     transform="translate(-48.824929,-44.177955)">
    <g
       id="g20907"
       transform="matrix(0.26458333,0,0,0.26458333,-86.906319,-62.869814)">
		<path
   class="st0"
   d="m 518,455 c -2.76,0 -5,-2.24 -5,-5 0,-2.76 2.24,-5 5,-5 2.76,0 5,2.24 5,5 0,2.76 -2.24,5 -5,5 z m 0,-8 c -1.65,0 -3,1.35 -3,3 0,1.65 1.35,3 3,3 1.65,0 3,-1.35 3,-3 0,-1.65 -1.35,-3 -3,-3 z"
   id="path20905"
   style="fill:#3f3a34" />

	</g>
    <g
       id="g20911"
       transform="matrix(0.26458333,0,0,0.26458333,-86.906319,-62.869814)">
		<path
   class="st0"
   d="m 534,441 c -2.76,0 -5,-2.24 -5,-5 0,-2.76 2.24,-5 5,-5 2.76,0 5,2.24 5,5 0,2.76 -2.24,5 -5,5 z m 0,-8 c -1.65,0 -3,1.35 -3,3 0,1.65 1.35,3 3,3 1.65,0 3,-1.35 3,-3 0,-1.65 -1.35,-3 -3,-3 z"
   id="path20909"
   style="fill:#3f3a34" />

	</g>
    <g
       id="g20915"
       transform="matrix(0.26458333,0,0,0.26458333,-86.906319,-62.869814)">
		<path
   class="st0"
   d="m 552,455 c -2.76,0 -5,-2.24 -5,-5 0,-2.76 2.24,-5 5,-5 2.76,0 5,2.24 5,5 0,2.76 -2.24,5 -5,5 z m 0,-8 c -1.65,0 -3,1.35 -3,3 0,1.65 1.35,3 3,3 1.65,0 3,-1.35 3,-3 0,-1.65 -1.35,-3 -3,-3 z"
   id="path20913"
   style="fill:#3f3a34" />

	</g>
    <g
       id="g20919"
       transform="matrix(0.26458333,0,0,0.26458333,-86.906319,-62.869814)">
		<path
   class="st0"
   d="m 570.01,439 c -0.43,0 -0.87,-0.06 -1.3,-0.17 -1.29,-0.35 -2.37,-1.17 -3.04,-2.33 -0.67,-1.16 -0.84,-2.5 -0.5,-3.79 0.35,-1.29 1.17,-2.37 2.33,-3.04 1.16,-0.67 2.5,-0.85 3.79,-0.5 1.29,0.35 2.37,1.17 3.04,2.33 0.67,1.16 0.84,2.5 0.5,3.79 -0.35,1.29 -1.17,2.37 -2.33,3.04 -0.77,0.44 -1.63,0.67 -2.49,0.67 z M 570,431 c -0.51,0 -1.02,0.13 -1.5,0.4 -1.43,0.83 -1.92,2.67 -1.1,4.1 0.83,1.43 2.67,1.93 4.1,1.1 1.43,-0.83 1.92,-2.67 1.1,-4.1 -0.56,-0.96 -1.57,-1.5 -2.6,-1.5 z"
   id="path20917"
   style="fill:#3f3a34" />

	</g>
    <g
       id="g20923"
       transform="matrix(0.26458333,0,0,0.26458333,-86.906319,-62.869814)">
		<rect
   x="517"
   y="457"
   class="st0"
   width="2"
   height="9"
   id="rect20921"
   style="fill:#3f3a34" />

	</g>
    <g
       id="g20927"
       transform="matrix(0.26458333,0,0,0.26458333,-86.906319,-62.869814)">
		<rect
   x="521"
   y="456"
   class="st0"
   width="2"
   height="10"
   id="rect20925"
   style="fill:#3f3a34" />

	</g>
    <g
       id="g20931"
       transform="matrix(0.26458333,0,0,0.26458333,-86.906319,-62.869814)">
		<rect
   x="525"
   y="447"
   class="st0"
   width="2"
   height="19"
   id="rect20929"
   style="fill:#3f3a34" />

	</g>
    <g
       id="g20935"
       transform="matrix(0.26458333,0,0,0.26458333,-86.906319,-62.869814)">
		<rect
   x="529"
   y="443"
   class="st0"
   width="2"
   height="23"
   id="rect20933"
   style="fill:#3f3a34" />

	</g>
    <g
       id="g20939"
       transform="matrix(0.26458333,0,0,0.26458333,-86.906319,-62.869814)">
		<rect
   x="533"
   y="443"
   class="st0"
   width="2"
   height="23"
   id="rect20937"
   style="fill:#3f3a34" />

	</g>
    <g
       id="g20943"
       transform="matrix(0.26458333,0,0,0.26458333,-86.906319,-62.869814)">
		<rect
   x="537"
   y="443"
   class="st0"
   width="2"
   height="23"
   id="rect20941"
   style="fill:#3f3a34" />

	</g>
    <g
       id="g20947"
       transform="matrix(0.26458333,0,0,0.26458333,-86.906319,-62.869814)">
		<rect
   x="541"
   y="446"
   class="st0"
   width="2"
   height="20"
   id="rect20945"
   style="fill:#3f3a34" />

	</g>
    <g
       id="g20951"
       transform="matrix(0.26458333,0,0,0.26458333,-86.906319,-62.869814)">
		<rect
   x="545"
   y="453"
   class="st0"
   width="2"
   height="13"
   id="rect20949"
   style="fill:#3f3a34" />

	</g>
    <g
       id="g20955"
       transform="matrix(0.26458333,0,0,0.26458333,-86.906319,-62.869814)">
		<rect
   x="549"
   y="457"
   class="st0"
   width="2"
   height="9"
   id="rect20953"
   style="fill:#3f3a34" />

	</g>
    <g
       id="g20959"
       transform="matrix(0.26458333,0,0,0.26458333,-86.906319,-62.869814)">
		<rect
   x="553"
   y="457"
   class="st0"
   width="2"
   height="9"
   id="rect20957"
   style="fill:#3f3a34" />

	</g>
    <g
       id="g20963"
       transform="matrix(0.26458333,0,0,0.26458333,-86.906319,-62.869814)">
		<rect
   x="557"
   y="453"
   class="st0"
   width="2"
   height="13"
   id="rect20961"
   style="fill:#3f3a34" />

	</g>
    <g
       id="g20967"
       transform="matrix(0.26458333,0,0,0.26458333,-86.906319,-62.869814)">
		<rect
   x="561"
   y="445"
   class="st0"
   width="2"
   height="21"
   id="rect20965"
   style="fill:#3f3a34" />

	</g>
    <g
       id="g20971"
       transform="matrix(0.26458333,0,0,0.26458333,-86.906319,-62.869814)">
		<rect
   x="565"
   y="442"
   class="st0"
   width="2"
   height="24"
   id="rect20969"
   style="fill:#3f3a34" />

	</g>
    <g
       id="g20975"
       transform="matrix(0.26458333,0,0,0.26458333,-86.906319,-62.869814)">
		<rect
   x="569"
   y="441"
   class="st0"
   width="2"
   height="25"
   id="rect20973"
   style="fill:#3f3a34" />

	</g>
    <g
       id="g20979"
       transform="matrix(0.26458333,0,0,0.26458333,-86.906319,-62.869814)">
		<rect
   x="513"
   y="465"
   class="st0"
   width="62"
   height="2"
   id="rect20977"
   style="fill:#3f3a34" />

	</g>
    <g
       id="g20983"
       transform="matrix(0.26458333,0,0,0.26458333,-86.906319,-62.869814)">
		
			<rect
   x="552.96997"
   y="441"
   transform="matrix(0.7474,-0.6644,0.6644,0.7474,-151.9451,484.3591)"
   class="st0"
   width="16.059999"
   height="2"
   id="rect20981"
   style="fill:#3f3a34" />

	</g>
    <g
       id="g20987"
       transform="matrix(0.26458333,0,0,0.26458333,-86.906319,-62.869814)">
		
			<rect
   x="542"
   y="435.39999"
   transform="matrix(0.614,-0.7893,0.7893,0.614,-140.0582,599.6189)"
   class="st0"
   width="2"
   height="15.2"
   id="rect20985"
   style="fill:#3f3a34" />

	</g>
    <g
       id="g20991"
       transform="matrix(0.26458333,0,0,0.26458333,-86.906319,-62.869814)">
		
			<rect
   x="519.35999"
   y="442"
   transform="matrix(0.7529,-0.6582,0.6582,0.7529,-161.5786,455.6779)"
   class="st0"
   width="13.29"
   height="2"
   id="rect20989"
   style="fill:#3f3a34" />

	</g>
    <g
       id="g21007"
       transform="matrix(0.26458333,0,0,0.26458333,-86.906319,-63.398981)">
		<rect
   x="558"
   y="435"
   class="st0"
   width="2"
   height="2"
   id="rect21005"
   style="fill:#3f3a34" />

	</g>
    <g
       id="g21011"
       transform="matrix(0.26458333,0,0,0.26458333,-86.906319,-63.398981)">
		<rect
   x="558"
   y="431"
   class="st0"
   width="2"
   height="2"
   id="rect21009"
   style="fill:#3f3a34" />

	</g>
    <g
       id="g21015"
       transform="matrix(0.26458333,0,0,0.26458333,-86.906319,-63.398981)">
		<rect
   x="558"
   y="427"
   class="st0"
   width="2"
   height="2"
   id="rect21013"
   style="fill:#3f3a34" />

	</g>
    <g
       id="g21019"
       transform="matrix(0.26458333,0,0,0.26458333,-86.906319,-62.869814)">
		<rect
   x="544"
   y="437"
   class="st0"
   width="2"
   height="2"
   id="rect21017"
   style="fill:#3f3a34" />

	</g>
    <g
       id="g21023"
       transform="matrix(0.26458333,0,0,0.26458333,-86.906319,-62.869814)">
		<rect
   x="544"
   y="433"
   class="st0"
   width="2"
   height="2"
   id="rect21021"
   style="fill:#3f3a34" />

	</g>
    <g
       id="g21027"
       transform="matrix(0.26458333,0,0,0.26458333,-86.906319,-62.869814)">
		<rect
   x="544"
   y="429"
   class="st0"
   width="2"
   height="2"
   id="rect21025"
   style="fill:#3f3a34" />

	</g>
    <g
       id="g21031"
       transform="matrix(0.26458333,0,0,0.26458333,-86.906319,-62.869814)">
		<rect
   x="528"
   y="431"
   class="st0"
   width="2"
   height="2"
   id="rect21029"
   style="fill:#3f3a34" />

	</g>
    <g
       id="g21035"
       transform="matrix(0.26458333,0,0,0.26458333,-86.906319,-62.869814)">
		<rect
   x="528"
   y="427"
   class="st0"
   width="2"
   height="2"
   id="rect21033"
   style="fill:#3f3a34" />

	</g>
    <g
       aria-label="$"
       id="text32423"
       style="font-weight:bold;font-size:4.58611px;font-family:'Josefin Sans';-inkscape-font-specification:'Josefin Sans Bold';fill:#3f3a34;stroke:#ffffff;stroke-width:0.188">
      <path
         d="m 54.396613,47.784212 q 0,0.378444 -0.317983,0.649401 -0.317982,0.270956 -0.84422,0.306785 v 0.81287 h -0.38964 v -0.799434 q -0.250803,-0.0022 -0.579982,-0.06046 -0.329179,-0.05822 -0.515042,-0.145556 v -0.653879 h 0.100769 q 0.206017,0.111966 0.472495,0.179145 0.268717,0.06718 0.532956,0.08733 v -0.613572 l -0.217213,-0.04926 q -0.206017,-0.04702 -0.380683,-0.109726 -0.172427,-0.0627 -0.297828,-0.165709 -0.125402,-0.103008 -0.194821,-0.253042 -0.06942,-0.152273 -0.06942,-0.373965 0,-0.333658 0.304546,-0.571025 0.304547,-0.237367 0.844221,-0.286632 v -0.521759 h 0.38964 v 0.517281 q 0.206017,0.009 0.481452,0.05822 0.277674,0.04927 0.436666,0.114205 v 0.644922 h -0.09853 q -0.158991,-0.09181 -0.369487,-0.152274 -0.210495,-0.06046 -0.450101,-0.07614 v 0.568785 l 0.179145,0.03583 q 0.506084,0.09853 0.743451,0.300068 0.239607,0.199298 0.239607,0.557588 z m -1.516014,-0.94275 v -0.51952 q -0.147795,0.0112 -0.266478,0.07614 -0.116445,0.0627 -0.116445,0.179145 0,0.105248 0.07614,0.16347 0.07614,0.05822 0.306786,0.100769 z m 0.703143,1.030083 q 0,-0.12988 -0.120922,-0.19258 -0.118684,-0.06494 -0.237367,-0.08285 v 0.555349 q 0.147794,-0.02015 0.253042,-0.08509 0.105247,-0.06718 0.105247,-0.19482 z"
         style="font-family:sans-serif;-inkscape-font-specification:'sans-serif Bold';stroke:#3f3a34"
         id="path35643" />
    </g>
    <g
       aria-label="£"
       id="text32423-5"
       style="font-weight:bold;font-size:4.58611px;font-family:'Josefin Sans';-inkscape-font-specification:'Josefin Sans Bold';fill:#3f3a34;stroke:#3f3a34;stroke-width:0.188">
      <path
         d="m 58.46359,49.853893 h -2.622234 v -0.629246 q 0.277675,-0.07614 0.371726,-0.237367 0.09405,-0.161231 0.09405,-0.483692 h -0.394119 v -0.48593 h 0.394119 v -0.584461 q 0,-0.427708 0.329179,-0.703143 0.331418,-0.275436 0.873331,-0.275436 0.304546,0 0.503845,0.03807 0.201538,0.03583 0.320222,0.06942 v 0.698665 h -0.100769 q -0.170188,-0.105247 -0.320222,-0.147794 -0.150034,-0.04479 -0.279914,-0.04479 -0.232888,0 -0.376204,0.134358 -0.141077,0.13212 -0.141077,0.371726 v 0.443384 h 0.978579 v 0.48593 h -0.978579 q 0,0.199299 -0.107487,0.398598 -0.105247,0.199299 -0.270956,0.288871 v 0.02463 h 1.726509 z"
         style="font-family:sans-serif;-inkscape-font-specification:'sans-serif Bold'"
         id="path35646" />
    </g>
    <g
       aria-label="€"
       id="text32423-1"
       style="font-weight:bold;font-size:4.58611px;font-family:'Josefin Sans';-inkscape-font-specification:'Josefin Sans Bold';fill:#3f3a34;stroke:#3f3a34;stroke-width:0.188">
      <path
         d="m 59.454502,47.178129 0.107487,-0.300068 h 0.12988 q -0.0022,-0.04479 -0.0045,-0.08957 -0.0022,-0.04702 -0.0022,-0.09405 0,-0.05374 0.0022,-0.105247 0.0022,-0.05374 0.0067,-0.105248 h -0.239606 l 0.107487,-0.300068 h 0.176906 q 0.12988,-0.571024 0.548631,-0.897964 0.420991,-0.326939 1.065912,-0.326939 0.365008,0 0.629247,0.07166 0.266478,0.07166 0.535195,0.206017 v 0.808391 h -0.09853 q -0.19706,-0.19482 -0.427709,-0.317982 -0.22841,-0.125402 -0.506084,-0.125402 -0.279914,0 -0.506085,0.156752 -0.223931,0.154513 -0.322461,0.425469 h 0.660597 l -0.107487,0.300068 h -0.620289 q -0.0045,0.04926 -0.009,0.105248 -0.0022,0.05374 -0.0022,0.107487 0,0.04702 0.0022,0.09405 0.0022,0.04479 0.0067,0.08733 h 0.476973 l -0.107487,0.300068 h -0.309025 q 0.09181,0.273196 0.311264,0.438905 0.221692,0.163469 0.530717,0.163469 0.277675,0 0.52176,-0.123162 0.244085,-0.123162 0.416512,-0.317982 h 0.08957 v 0.797195 q -0.329178,0.158991 -0.579981,0.221692 -0.248564,0.06494 -0.5867,0.06494 -0.656118,0 -1.077109,-0.32694 -0.418751,-0.329178 -0.541913,-0.918117 z"
         style="font-family:sans-serif;-inkscape-font-specification:'sans-serif Bold'"
         id="path35649" />
    </g>
  </g>
</svg>
