<?xml version="1.0" encoding="UTF-8"?>
<!-- Created with Inkscape (http://www.inkscape.org/) -->
<svg width="42.333mm" height="42.333mm" version="1.1" viewBox="0 0 42.333 42.333" xmlns="http://www.w3.org/2000/svg">
 <g transform="translate(-18.655 -59.855)">
  <rect x="18.655" y="59.855" width="42.333" height="42.333" fill="#fff"/>
  <g transform="matrix(1.5998 0 0 1.5998 1.6565 -25.212)" stroke="#000">
   <path d="m10.757 58.918v3.7414l11.776 11.776v-3.7419zm14.421 14.421-1e-6 3.7419 2.421 2.421h3.7419z" stroke-width=".26458"/>
   <path d="m10.752 53.36 2.3954 0.73369-1.27e-4 25.414h-2.3953z" stroke-width=".25055"/>
   <path d="m34.564 53.3h2.3953v26.129l-2.3953-0.71438z" stroke-width=".25055"/>
   <g stroke-width=".26458">
    <path d="m16.37 53.306 6.288 6.288v-3.7414l-2.5466-2.5466zm8.6837 4.9423v3.7414l11.901 11.901v-3.7419z"/>
    <path d="m31.338 53.306 5.6167 5.6172v-3.7419l-1.8753-1.8753z"/>
    <path d="m25.054 53.306 1e-6 1.1999 11.901 11.901v-3.7414l-9.3591-9.3591z"/>
    <path d="m10.757 53.306v1.8712l24.326 24.326h1.8712v-1.8712l-24.326-24.326z"/>
    <path d="m10.757 66.402v3.7414l9.3591 9.3591h2.5414v-1.1999z"/>
    <path d="m10.757 73.886v3.7414l1.8753 1.8753h3.7419z"/>
   </g>
  </g>
 </g>
</svg>
