<?xml version="1.0" encoding="UTF-8"?>
<!-- Created with Inkscape (http://www.inkscape.org/) -->
<svg width="92.604mm" height="26.461mm" version="1.1" viewBox="0 0 92.604 26.461" xmlns="http://www.w3.org/2000/svg">
 <g transform="translate(-10.625 -53.173)">
  <path d="m10.757 58.918v3.7414l11.776 11.776v-3.7419zm14.421 14.421-1e-6 3.7419 2.421 2.421h3.7419z" stroke-width=".26458"/>
  <path d="m10.752 53.36 2.3954 0.73369-1.27e-4 25.414h-2.3953z" stroke-width=".25055"/>
  <path d="m34.564 53.3h2.3953v26.129l-2.3953-0.71438z" stroke-width=".25055"/>
  <g stroke-width=".26458">
   <path d="m16.37 53.306 6.288 6.288v-3.7414l-2.5466-2.5466zm8.6837 4.9423v3.7414l11.901 11.901v-3.7419z"/>
   <path d="m31.338 53.306 5.6167 5.6172v-3.7419l-1.8753-1.8753z"/>
   <path d="m25.054 53.306 1e-6 1.1999 11.901 11.901v-3.7414l-9.3591-9.3591z"/>
   <path d="m10.757 53.306v1.8712l24.326 24.326h1.8712v-1.8712l-24.326-24.326z"/>
   <path d="m10.757 66.402v3.7414l9.3591 9.3591h2.5414v-1.1999z"/>
   <path d="m10.757 73.886v3.7414l1.8753 1.8753h3.7419z"/>
  </g>
 </g>
 <g stroke-width=".18838" aria-label="NOBLE">
  <path d="m41.03 14.386-10.098-9.1205 0.77814 0.43431 0.05429 8.1433h-2.6601v-13.844h0.10858l9.8805 9.0843-0.57908-0.25335-0.054288-8.3062h2.642v13.862z"/>
  <path d="m43.726 7.2023q0-1.3753 0.52479-2.6059t1.4477-2.1715q0.941-0.9591 2.1715-1.502 1.2305-0.54289 2.642-0.54289 1.3934 0 2.6239 0.54289 1.2305 0.54289 2.1715 1.502 0.9591 0.941 1.4839 2.1715 0.54289 1.2305 0.54289 2.6059 0 1.4115-0.54289 2.642-0.52479 1.2305-1.4839 2.1715-0.941 0.92291-2.1715 1.4477-1.2305 0.52479-2.6239 0.52479-1.4115 0-2.642-0.52479-1.2305-0.52479-2.1715-1.4477-0.92291-0.941-1.4477-2.1715-0.52479-1.2305-0.52479-2.642zm2.7144 0q0 0.88671 0.30764 1.6649 0.32573 0.76004 0.88671 1.3572 0.57908 0.57908 1.321 0.90481 0.76004 0.32573 1.6468 0.32573 0.85052 0 1.5744-0.32573 0.74194-0.32573 1.2848-0.90481 0.54289-0.59717 0.85052-1.3572 0.30764-0.77814 0.30764-1.6649 0-0.90481-0.32573-1.6829-0.30764-0.77814-0.86862-1.3572-0.54289-0.59717-1.2848-0.92291-0.74194-0.32573-1.6106-0.32573-0.86862 0-1.6106 0.32573t-1.3029 0.92291q-0.56098 0.57908-0.86862 1.3572-0.30764 0.77814-0.30764 1.6829z"/>
  <path d="m63.867 0.52478q2.0811 0 3.3116 0.85052 1.2305 0.83243 1.2305 2.4973 0 1.2305-0.61527 2.063-0.59718 0.81433-1.6468 1.2305-1.0315 0.39812-2.3706 0.39812l-0.41621-1.4115q1.6468 0 2.9135 0.4524 1.2848 0.4524 2.0268 1.3029 0.74194 0.83243 0.74194 2.0087 0 1.0858-0.39812 1.8458-0.38002 0.74194-1.0496 1.2124-0.65146 0.4524-1.4839 0.66956-0.83242 0.19906-1.7191 0.19906h-4.4336v-13.319zm0.30764 5.447q0.77814 0 1.1401-0.4705 0.38002-0.4705 0.38002-1.0677 0-0.68766-0.4705-1.0315-0.4524-0.34383-1.2305-0.34383h-1.4115v2.9135zm0.09048 5.4289q0.57908 0 1.0496-0.14477 0.4705-0.16287 0.74194-0.4886 0.27144-0.34383 0.27144-0.85052 0-0.57908-0.32573-0.86862-0.32573-0.30764-0.85052-0.41621-0.50669-0.12667-1.0677-0.12667h-1.502v2.8954z"/>
  <path d="m71.666 0.52478h2.6239v10.785h6.2613v2.5335h-8.8852z"/>
  <path d="m83.266 0.52478h9.0843v2.5335h-6.4603v2.8411h5.7184v2.5335h-5.7184v2.8773h6.7137v2.5335h-9.3376z"/>
 </g>
 <g stroke-width="1.0963" aria-label="DYNAMIC">
  <path d="m29.104 26.067v-9.6821h2.8941q1.4602 0 2.4863 0.43412t1.6444 1.1576q0.63144 0.72352 0.92085 1.6181t0.28941 1.8022q0 1.0787-0.39465 1.9469-0.3815 0.85508-1.0524 1.4734-0.6709 0.60513-1.5523 0.934-0.88138 0.31572-1.868 0.31572zm1.9075-1.8417h1.1313q0.72352 0 1.3155-0.18417 0.59198-0.19732 1.0129-0.56566 0.43412-0.36834 0.65775-0.92085 0.23679-0.56566 0.23679-1.2892 0-0.94716-0.31572-1.5391-0.30256-0.60513-0.76299-0.934-0.44727-0.32888-0.92085-0.44727-0.47358-0.13155-0.80246-0.13155h-1.5523z"/>
  <path d="m41.102 23.054-3.565-6.6696h2.3547l2.4994 5.0252-0.56566 0.03946 2.46-5.0647h2.3547l-3.6308 6.6696v3.0125h-1.9075z"/>
  <path d="m56.756 26.461-7.3405-6.6301 0.56566 0.31572 0.03947 5.9198h-1.9338v-10.064h0.07893l7.1826 6.6038-0.42096-0.18417-0.03946-6.0381h1.9206v10.077z"/>
  <path d="m58.216 26.067 4.3675-10.064h0.10524l4.3675 10.064h-2.21l-2.7889-7.0774 1.3813-0.94716-3.3414 8.0246zm2.9862-3.4992h2.9073l0.6709 1.6049h-4.1701z"/>
  <path d="m68.464 26.067v-10.077h0.01315l5.3804 7.6299-0.81561-0.18417 5.3672-7.4457h0.02631v10.077h-1.9075v-5.775l0.1184 0.98662-3.2756 4.6569h-0.02631l-3.3677-4.6569 0.32888-0.9077v5.6961z"/>
  <path d="m80.935 16.385h1.9075v9.6821h-1.9075z"/>
  <path d="m92.603 25.264q-0.15786 0.13155-0.59198 0.35518-0.42096 0.22364-1.0392 0.39465t-1.3681 0.15786q-1.1445-0.02631-2.0522-0.4078-0.89454-0.39465-1.526-1.0656-0.61828-0.6709-0.94716-1.5391t-0.32888-1.8549q0-1.105 0.32888-2.0259 0.34203-0.92085 0.96032-1.5918 0.63144-0.6709 1.4997-1.0392 0.86823-0.36834 1.9206-0.36834 0.97347 0 1.7233 0.2631t1.2234 0.56566l-0.74984 1.8022q-0.32888-0.24994-0.88138-0.51304-0.53936-0.27626-1.2497-0.27626-0.55251 0-1.0656 0.23679-0.49989 0.22364-0.89454 0.6446-0.3815 0.42096-0.60513 0.98662-0.22364 0.55251-0.22364 1.2103 0 0.69722 0.19732 1.276 0.21048 0.57882 0.59198 0.99978 0.3815 0.4078 0.9077 0.63144 0.53936 0.22364 1.2103 0.22364 0.77614 0 1.3287-0.24994t0.84192-0.5262z"/>
 </g>
</svg>
